<svg xmlns="http://www.w3.org/2000/svg" viewBox="0 0 890 500"><defs><style>.cls-1 { fill: #fff; } .cls-2 { fill: #b8591f; }</style></defs><g id="Calque_5" data-name="Calque 5"><path class="cls-1" d="M0 0h316.61v479.41H0z"/><path class="cls-2" d="M13.43 13.42h135.31v25h19.27V13.5h135.17v452.55H168.01v-25.09h-19.26v25.11H13.43q.01-226.37 0-452.65zm39.81 63.17V94h18.3v97.82h19.18V94h18.3V76.59zm68.36 0v115.25h52V174.4c-10.94 0-21.88.07-32.81-.06.08-11.2 0-22.41.06-33.61h30.14c0-5.73.08-11.45 0-17.17l-.25-.2c-10-.11-19.92 0-29.88 0 0-9.78-.06-19.55 0-29.33h32.73V76.61zm67.33 0v115.26h16.2v-79.52a604.15 604.15 0 0 1 31.74 79.53h13.57V76.62h-16.2v59.72a519.57 519.57 0 0 0-28.9-59.72zM37.14 232.98v13.4h242.37v-13.4zm163.1 59.85a26.51 26.51 0 0 0-9.88 17 33.79 33.79 0 0 0 7.09 25.71c6.52 8.18 15.28 14.1 23.11 20.93 4.23 3.68 8.83 7.33 11.32 12.5a13.58 13.58 0 0 1-1.37 14.2c-2.89 3.61-7.48 5.46-12 6-10.65 1-21.45-3-29.49-9.91.08 5.43-.2 10.88.14 16.3 1.36 3 5.09 4 7.89 5.34 11.15 4.28 23.93 5 35.21.76a29.35 29.35 0 0 0 17.69-17.77 33.09 33.09 0 0 0-4.71-29.1c-5.54-7.89-13.58-13.4-20.88-19.51-5-4.08-10.29-8.08-13.64-13.69-2.51-4.22-2.94-9.92-.13-14.1s7.85-6.26 12.72-6.45a41 41 0 0 1 22.52 6.7c0-4.67.1-9.35-.06-14 .09-2-1.77-3-3.31-3.77-6.13-3-13-4-19.8-4.07-7.92-.18-16.1 1.96-22.42 6.93zm-134.5-5.25v115.07h16.37v-79.28a599.85 599.85 0 0 1 31.63 79.27h13.69v-115c-5.47-.15-10.94 0-16.41-.08-.08 19.84.1 39.68-.09 59.52a489.8 489.8 0 0 0-28.68-59.51c-5.46.01-11.01.03-16.49.01zm83 0q-.05 57.54 0 115.07h19.16V287.58q-9.56.03-19.13 0z"/></g><path class="cls-1" d="M539.5 211.28h17.13q10.64 24.16 21.43 48.26a66.64 66.64 0 0 1 3.65 8.78h-15.16c-1.54-4-3.47-7.93-4.9-12-8-.11-15.93 0-23.89-.06a30 30 0 0 0-4 .19c-1.62 4-3.22 8-5 11.91-4.88-.08-9.76 0-14.64 0 .71-2.71 2.14-5.14 3.25-7.69q11.08-24.69 22.13-49.39zm8.23 12.11c-3.22 7.37-6.45 14.74-9.31 22.25 6.19-.06 12.38 0 18.57 0-1.06-3.39-2.8-6.51-4-9.87-1.84-4.09-3.33-8.32-5.26-12.37zm252.25-1l.06 11.51 22.98.04.03 11.29-22.8-.06v12l30.71-.13.16 11.43-44.82-.01-.02-57.15 44.65.04-.03 11.14-30.92-.1zm-129.05-9.48c11.13-3.42 23.47-1.24 33.51 4.38.08 4.17 0 8.35.06 12.52-3.86.06-7.73 0-11.59.05-.06-1.77-.08-3.54 0-5.3a24.85 24.85 0 0 0-14.9-1.66 15.92 15.92 0 0 0-10.24 7.34 18.51 18.51 0 0 0-2.14 13 16.52 16.52 0 0 0 11.76 13.21 20.79 20.79 0 0 0 16.65-2.15c1.88-1 3.26-2.76 5-4 2.16 2 4.17 4.21 6.33 6.25a9.28 9.28 0 0 1 1.78 2.31 33.29 33.29 0 0 1-19.4 9.33c-8.41.87-17.34-.51-24.45-5.29a26.5 26.5 0 0 1-11.64-18c-.79-5.38-.57-11.1 1.71-16.11 2.99-7.69 9.82-13.43 17.56-15.88zm-216.51-1.63h27.32c6 .13 12.26 1.9 16.67 6.13 6 5.62 7.16 15.73 2.35 22.45-2.46 3.61-6.25 6-10.17 7.73 6.38 6.87 12.67 13.82 19 20.74h-17.35c-5.43-5.91-10.68-12-16.17-17.86-2.57.06-5.14 0-7.7 0-.21 6 0 11.92-.13 17.87-4.61-.06-9.21 0-13.81 0q-.03-28.53-.01-57.06zm13.83 11c.11 5.74 0 11.47 0 17.21h8.9c4.32.38 9.31-1.16 11.27-5.35 1.59-3.37.64-7.92-2.54-10-2.66-1.86-6-2-9.16-1.94-2.79.01-5.64-.17-8.48.03zm13.55 67.11c8.48-1.32 17.66.19 24.71 5.27a27 27 0 0 1 10.9 17.58 30.05 30.05 0 0 1-4.42 21.47 28.29 28.29 0 0 1-17.75 11.65c-8.71 1.8-18.31.63-25.78-4.4a27.44 27.44 0 0 1-11.86-19.83 28.25 28.25 0 0 1 5.63-21.22 29.3 29.3 0 0 1 18.57-10.52zm1.6 11.22a15 15 0 0 0-8.64 5.69 18.93 18.93 0 0 0-3.25 12.82 18.69 18.69 0 0 0 3.38 10 14.52 14.52 0 0 0 9.54 5.59 17.16 17.16 0 0 0 13.32-3 16.33 16.33 0 0 0 5.66-10.69 24 24 0 0 0-.39-9.07 15.59 15.59 0 0 0-6.25-9.11 17.21 17.21 0 0 0-13.37-2.22zm-83.47-89.33h46.26v10.52l-32.53.19.18 17.95h23.31l-.09 10.5-23.25.05s.05 11.34-.18 17c-.29 1.15-1.7.72-2.56.86-3.48-.09-7 .13-10.44-.1-1-.26-.64-1.54-.76-2.28l.06-54.69zm186.31.01h10.8a3.13 3.13 0 0 1 2.59 1.12c9.23 11.21 18.4 22.48 27.65 33.68v-34.78h13.36c0 19 .06 38.08 0 57.11h-10a3.81 3.81 0 0 1-3.15-1.28q-13.93-17.1-27.82-34.24v35.53h-13.43v-57.14zm129.74 0h14c.05 7.74 0 15.48 0 23.22h28.37V211.3h13.89v57.11h-13.87v-22.19h-28.38v22.18c-4.68 0-9.35.09-14-.06.02-19.03-.04-38.04-.01-57.05zm-301.19 79.38c11.13-3.42 23.47-1.24 33.51 4.38.08 4.17 0 8.35.06 12.52-3.86.06-7.73 0-11.59.05-.06-1.77-.08-3.54 0-5.3a24.85 24.85 0 0 0-14.9-1.66 15.92 15.92 0 0 0-10.24 7.34 18.51 18.51 0 0 0-2.14 13 16.52 16.52 0 0 0 11.75 13.19 20.79 20.79 0 0 0 16.65-2.15c1.88-1 3.26-2.76 5-4 2.16 2 4.17 4.21 6.33 6.25a9.28 9.28 0 0 1 1.78 2.31 33.29 33.29 0 0 1-19.4 9.33c-8.41.87-17.34-.51-24.45-5.29a26.5 26.5 0 0 1-11.64-18c-.79-5.38-.57-11.1 1.71-16.11 3.02-7.67 9.83-13.41 17.57-15.86zm113.67-1.62c3.64 0 7.29-.07 10.93 0 1 0 1.55.86 2.12 1.51q7.35 9.2 14.73 18.38a43.75 43.75 0 0 0 3.23 3.82c6-7.94 12.13-15.76 18.12-23.7 4.18-.09 8.36-.07 12.54 0-.05 19 0 38 0 57.05h-13.36v-35.67c-2.63 2.84-4.85 6.06-7.3 9.05l-10.23 12.96c-5.9-7.27-11.61-14.71-17.59-21.91v35.54c-4.39.17-8.79 0-13.18.07-.04-19.04-.01-38.07-.01-57.1zm69.31-.07h51.49v11.19h-18.9c0 15.33.08 30.67-.05 46h-14v-46h-18.57q.02-5.62.03-11.19zm77.41-5c4.86-1.12 9.72-2.28 14.58-3.41v8.37h14.39v11.19H673.6v11.38h22.78v11.28h-22.79v11.89h30.86v11.43a43.29 43.29 0 0 0-5.39-.13h-39.37V288.9h15.43c.01-1.63 0-3.28.06-4.92zM490.82 135.64a40.19 40.19 0 0 1 19.3-2 51.14 51.14 0 0 1 16.63 5v13.54h-11.84v-5.84a28.88 28.88 0 0 0-14.26-1.41 16.44 16.44 0 0 0-11.57 8 19.49 19.49 0 0 0-1.4 15.15 16.53 16.53 0 0 0 9.83 10.47c5.63 2.22 12 1.83 17.69.06v-7h-9.33v-10h22.5v25.18a58.33 58.33 0 0 1-24.13 4.39 36.32 36.32 0 0 1-19.53-5.88 27.42 27.42 0 0 1-11.34-16.24 29 29 0 0 1 2.24-20.23 28.58 28.58 0 0 1 15.21-13.19zM400 134.28h13.57v44.92h26.67v10.94h-40.25q0-27.92.01-55.86zm211.24.01h43.6v10.94h-30v11.25h22.41v10.94h-22.4v11.72c10.11.09 20.23 0 30.34 0v10.95h-43.95v-55.8zm-162.07 0h13.69v55.87h-13.71c.09-18.64.01-37.25.02-55.87zm92.79 0h13.67v33.47a12.11 12.11 0 0 0 3.3 8.58c2.54 2.57 6.26 3.52 9.78 3.56 3.36 0 6.9-.81 9.5-3.07a11.55 11.55 0 0 0 3.77-8.64V134.3h13.79v28.19c0 3.8.27 7.67-.76 11.38a21.16 21.16 0 0 1-9.08 12.75c-6.22 4-13.94 5.11-21.21 4.38-6.13-.66-12.31-3-16.64-7.48a21.25 21.25 0 0 1-5.85-12.1 57.79 57.79 0 0 1-.31-8.55q.04-14.3.04-28.58z" id="Calque_3" data-name="Calque 3"/></svg>