<?xml version="1.0" encoding="utf-8"?>
<!-- Generator: Adobe Illustrator 21.0.0, SVG Export Plug-In . SVG Version: 6.00 Build 0)  -->
<svg version="1.1" id="Calque_1" xmlns="http://www.w3.org/2000/svg" xmlns:xlink="http://www.w3.org/1999/xlink" x="0px" y="0px"
	 viewBox="0 0 128.2 84" style="enable-background:new 0 0 128.2 84;" xml:space="preserve">
<style type="text/css">
	.st0{fill:#FFFFFF;}
</style>
<path class="st0" d="M22.4,51l-1.2,0.3v3.1l1.2-0.3c1.2-0.3,1.8-1.2,1.8-2C24.2,51.2,23.6,50.6,22.4,51z M30.3,48.8
	c-1.9,0.5-2.7,2.2-2.7,3.6c0,1.5,0.9,2.7,2.7,2.2c1.9-0.5,2.7-2.2,2.7-3.6C33.1,49.4,32.2,48.3,30.3,48.8z M46.5,44.5l-1.3,0.4v2.6
	l1.3-0.4c1-0.3,1.6-1,1.6-1.8C48.1,44.7,47.7,44.2,46.5,44.5z M83.7,34.4C81.9,34.9,81,36.6,81,38c0,1.5,0.9,2.7,2.7,2.2
	c1.9-0.5,2.7-2.2,2.7-3.6C86.5,35.1,85.6,33.9,83.7,34.4z M99.9,30.2l-1.3,0.4v2.6l1.3-0.4c1-0.3,1.6-1,1.6-1.8
	C101.5,30.3,101.1,29.9,99.9,30.2z M116.8,25.6c-1.9,0.5-2.7,2.2-2.7,3.6c0,1.5,0.9,2.7,2.7,2.2c1.9-0.5,2.7-2.2,2.7-3.6
	C119.5,26.3,118.7,25.1,116.8,25.6z M116.8,25.6c-1.9,0.5-2.7,2.2-2.7,3.6c0,1.5,0.9,2.7,2.7,2.2c1.9-0.5,2.7-2.2,2.7-3.6
	C119.5,26.3,118.7,25.1,116.8,25.6z M99.9,30.2l-1.3,0.4v2.6l1.3-0.4c1-0.3,1.6-1,1.6-1.8C101.5,30.3,101.1,29.9,99.9,30.2z
	 M83.7,34.4C81.9,34.9,81,36.6,81,38c0,1.5,0.9,2.7,2.7,2.2c1.9-0.5,2.7-2.2,2.7-3.6C86.5,35.1,85.6,33.9,83.7,34.4z M46.5,44.5
	l-1.3,0.4v2.6l1.3-0.4c1-0.3,1.6-1,1.6-1.8C48.1,44.7,47.7,44.2,46.5,44.5z M30.3,48.8c-1.9,0.5-2.7,2.2-2.7,3.6
	c0,1.5,0.9,2.7,2.7,2.2c1.9-0.5,2.7-2.2,2.7-3.6C33.1,49.4,32.2,48.3,30.3,48.8z M22.4,51l-1.2,0.3v3.1l1.2-0.3
	c1.2-0.3,1.8-1.2,1.8-2C24.2,51.2,23.6,50.6,22.4,51z M0,51.1v15.7l128.2-34V17.2L0,51.1z M22.6,54.9l-1.4,0.4v2.5l-1.1,0.3v-7.5
	l2.4-0.6c1.8-0.5,2.9,0.3,2.9,1.7C25.4,53.1,24.3,54.5,22.6,54.9z M30.3,55.5c-2.6,0.7-3.9-0.8-3.9-2.8c0-2,1.3-4.2,3.9-4.9
	c2.6-0.7,3.9,0.8,3.9,2.8C34.2,52.6,32.9,54.8,30.3,55.5z M41.8,49.4c0,1.6-1,3.3-3,3.8c-2,0.5-3-0.6-3-2.2v-4.6l1.1-0.3v4.6
	c0,1.1,0.6,1.9,1.9,1.5c1.3-0.4,1.9-1.5,1.9-2.6v-4.6l1.1-0.3V49.4z M48.1,50.6L46.6,48l-1.4,0.4v3l-1.1,0.3v-7.5l2.7-0.7
	c1.7-0.5,2.6,0.4,2.6,1.5c0,1-0.6,1.9-1.6,2.5l1.7,2.7L48.1,50.6z M60.1,44.5c0,1.6-1,3.2-3,3.8c-2,0.5-3-0.6-3-2.2v-4.6l1.1-0.3
	v4.6c0,1.1,0.6,1.9,1.9,1.5c1.3-0.4,1.9-1.5,1.9-2.5v-4.6l1.1-0.3V44.5z M68.9,45.1l-5.6-3.8v5.1l-1.1,0.3v-7.6l5.6,3.8v-5.1
	l1.1-0.3V45.1z M79.3,35.7L77,36.3v6.5l-1.1,0.3v-6.5l-2.3,0.6v-0.9l5.8-1.5V35.7z M83.7,41.2c-2.6,0.7-3.9-0.8-3.9-2.8
	c0-2,1.3-4.2,3.9-4.9c2.6-0.7,3.9,0.8,3.9,2.8C87.6,38.3,86.3,40.5,83.7,41.2z M95.2,35.1c0,1.6-1,3.3-3,3.8c-2,0.5-3-0.6-3-2.2
	v-4.6l1.1-0.3v4.6c0,1.1,0.6,1.9,1.9,1.5c1.3-0.4,1.9-1.5,1.9-2.5v-4.6l1.1-0.3V35.1z M101.5,36.3l-1.6-2.6l-1.4,0.4v3l-1.1,0.3
	v-7.5l2.7-0.7c1.7-0.5,2.6,0.4,2.6,1.5c0,1-0.6,1.9-1.6,2.5l1.7,2.8L101.5,36.3z M111.2,33.8l-5.6-3.8v5.1l-1.1,0.3v-7.6l5.6,3.8
	v-5.1l1.1-0.3V33.8z M116.8,32.3c-2.6,0.7-3.9-0.8-3.9-2.8c0-2,1.3-4.2,3.9-4.9c2.6-0.7,3.9,0.8,3.9,2.8
	C120.7,29.4,119.4,31.6,116.8,32.3z M123.6,30.4l-1.1,0.3v-7.5l1.1-0.3V30.4z M116.8,25.6c-1.9,0.5-2.7,2.2-2.7,3.6
	c0,1.5,0.9,2.7,2.7,2.2c1.9-0.5,2.7-2.2,2.7-3.6C119.5,26.3,118.7,25.1,116.8,25.6z M101.5,31c0-0.7-0.5-1.1-1.6-0.8l-1.3,0.4v2.6
	l1.3-0.4C100.9,32.5,101.5,31.8,101.5,31z M83.7,34.4C81.9,34.9,81,36.6,81,38c0,1.5,0.9,2.7,2.7,2.2c1.9-0.5,2.7-2.2,2.7-3.6
	C86.5,35.1,85.6,33.9,83.7,34.4z M48.1,45.3c0-0.7-0.5-1.1-1.6-0.8l-1.3,0.4v2.6l1.3-0.4C47.5,46.8,48.1,46.1,48.1,45.3z M30.3,48.8
	c-1.9,0.5-2.7,2.2-2.7,3.6c0,1.5,0.9,2.7,2.7,2.2c1.9-0.5,2.7-2.2,2.7-3.6C33.1,49.4,32.2,48.3,30.3,48.8z M22.4,51l-1.2,0.3v3.1
	l1.2-0.3c1.2-0.3,1.8-1.2,1.8-2C24.2,51.2,23.6,50.6,22.4,51z M22.4,51l-1.2,0.3v3.1l1.2-0.3c1.2-0.3,1.8-1.2,1.8-2
	C24.2,51.2,23.6,50.6,22.4,51z M30.3,48.8c-1.9,0.5-2.7,2.2-2.7,3.6c0,1.5,0.9,2.7,2.7,2.2c1.9-0.5,2.7-2.2,2.7-3.6
	C33.1,49.4,32.2,48.3,30.3,48.8z M46.5,44.5l-1.3,0.4v2.6l1.3-0.4c1-0.3,1.6-1,1.6-1.8C48.1,44.7,47.7,44.2,46.5,44.5z M83.7,34.4
	C81.9,34.9,81,36.6,81,38c0,1.5,0.9,2.7,2.7,2.2c1.9-0.5,2.7-2.2,2.7-3.6C86.5,35.1,85.6,33.9,83.7,34.4z M99.9,30.2l-1.3,0.4v2.6
	l1.3-0.4c1-0.3,1.6-1,1.6-1.8C101.5,30.3,101.1,29.9,99.9,30.2z M116.8,25.6c-1.9,0.5-2.7,2.2-2.7,3.6c0,1.5,0.9,2.7,2.7,2.2
	c1.9-0.5,2.7-2.2,2.7-3.6C119.5,26.3,118.7,25.1,116.8,25.6z M116.8,25.6c-1.9,0.5-2.7,2.2-2.7,3.6c0,1.5,0.9,2.7,2.7,2.2
	c1.9-0.5,2.7-2.2,2.7-3.6C119.5,26.3,118.7,25.1,116.8,25.6z M99.9,30.2l-1.3,0.4v2.6l1.3-0.4c1-0.3,1.6-1,1.6-1.8
	C101.5,30.3,101.1,29.9,99.9,30.2z M83.7,34.4C81.9,34.9,81,36.6,81,38c0,1.5,0.9,2.7,2.7,2.2c1.9-0.5,2.7-2.2,2.7-3.6
	C86.5,35.1,85.6,33.9,83.7,34.4z M46.5,44.5l-1.3,0.4v2.6l1.3-0.4c1-0.3,1.6-1,1.6-1.8C48.1,44.7,47.7,44.2,46.5,44.5z M30.3,48.8
	c-1.9,0.5-2.7,2.2-2.7,3.6c0,1.5,0.9,2.7,2.7,2.2c1.9-0.5,2.7-2.2,2.7-3.6C33.1,49.4,32.2,48.3,30.3,48.8z M22.4,51l-1.2,0.3v3.1
	l1.2-0.3c1.2-0.3,1.8-1.2,1.8-2C24.2,51.2,23.6,50.6,22.4,51z M116.8,25.6c-1.9,0.5-2.7,2.2-2.7,3.6c0,1.5,0.9,2.7,2.7,2.2
	c1.9-0.5,2.7-2.2,2.7-3.6C119.5,26.3,118.7,25.1,116.8,25.6z M99.9,30.2l-1.3,0.4v2.6l1.3-0.4c1-0.3,1.6-1,1.6-1.8
	C101.5,30.3,101.1,29.9,99.9,30.2z M83.7,34.4C81.9,34.9,81,36.6,81,38c0,1.5,0.9,2.7,2.7,2.2c1.9-0.5,2.7-2.2,2.7-3.6
	C86.5,35.1,85.6,33.9,83.7,34.4z M46.5,44.5l-1.3,0.4v2.6l1.3-0.4c1-0.3,1.6-1,1.6-1.8C48.1,44.7,47.7,44.2,46.5,44.5z M30.3,48.8
	c-1.9,0.5-2.7,2.2-2.7,3.6c0,1.5,0.9,2.7,2.7,2.2c1.9-0.5,2.7-2.2,2.7-3.6C33.1,49.4,32.2,48.3,30.3,48.8z M22.4,51l-1.2,0.3v3.1
	l1.2-0.3c1.2-0.3,1.8-1.2,1.8-2C24.2,51.2,23.6,50.6,22.4,51z M22.4,51l-1.2,0.3v3.1l1.2-0.3c1.2-0.3,1.8-1.2,1.8-2
	C24.2,51.2,23.6,50.6,22.4,51z M30.3,48.8c-1.9,0.5-2.7,2.2-2.7,3.6c0,1.5,0.9,2.7,2.7,2.2c1.9-0.5,2.7-2.2,2.7-3.6
	C33.1,49.4,32.2,48.3,30.3,48.8z M46.5,44.5l-1.3,0.4v2.6l1.3-0.4c1-0.3,1.6-1,1.6-1.8C48.1,44.7,47.7,44.2,46.5,44.5z M83.7,34.4
	C81.9,34.9,81,36.6,81,38c0,1.5,0.9,2.7,2.7,2.2c1.9-0.5,2.7-2.2,2.7-3.6C86.5,35.1,85.6,33.9,83.7,34.4z M99.9,30.2l-1.3,0.4v2.6
	l1.3-0.4c1-0.3,1.6-1,1.6-1.8C101.5,30.3,101.1,29.9,99.9,30.2z M116.8,25.6c-1.9,0.5-2.7,2.2-2.7,3.6c0,1.5,0.9,2.7,2.7,2.2
	c1.9-0.5,2.7-2.2,2.7-3.6C119.5,26.3,118.7,25.1,116.8,25.6z M53.8,25.3c-1.9,0.5-2.7,2.2-2.7,3.6c0,1.5,0.9,2.7,2.7,2.2
	c1.9-0.5,2.7-2.2,2.7-3.6C56.5,26,55.6,24.8,53.8,25.3z M108.5,10.7l-1.3,0.4v2.6l1.3-0.4c1-0.3,1.6-1,1.6-1.8
	C110.1,10.9,109.6,10.4,108.5,10.7z M108.5,10.7l-1.3,0.4v2.6l1.3-0.4c1-0.3,1.6-1,1.6-1.8C110.1,10.9,109.6,10.4,108.5,10.7z
	 M53.8,25.3c-1.9,0.5-2.7,2.2-2.7,3.6c0,1.5,0.9,2.7,2.7,2.2c1.9-0.5,2.7-2.2,2.7-3.6C56.5,26,55.6,24.8,53.8,25.3z M0,34v15.7
	l128.2-34V0L0,34z M94.9,10.7l1.4-0.4l-1.8,2.2l-0.9,0.2L94.9,10.7z M26.2,36.5c0,1.6-1,3.2-3,3.8c-2,0.5-3-0.6-3-2.2v-4.6l1.1-0.3
	v4.6c0,1.1,0.6,1.9,1.9,1.5c1.3-0.4,1.9-1.5,1.9-2.5v-4.6l1.1-0.3V36.5z M35.2,37l-5.6-3.8v5.1l-1.1,0.3v-7.6l5.6,3.8v-5.1l1.1-0.3
	V37z M47.9,33.6l-5.5-3.8V35l-1.1,0.3v-7.6l5.6,3.8v-5.1l1.1-0.3V33.6z M53.8,32.1c-2.6,0.7-3.9-0.8-3.9-2.8c0-2,1.3-4.2,3.9-4.9
	c2.6-0.7,3.9,0.8,3.9,2.8C57.7,29.1,56.4,31.4,53.8,32.1z M65.5,25.9c0,1.6-1,3.2-3,3.8c-2,0.5-3-0.6-3-2.2v-4.6l1.1-0.3v4.6
	c0,1.1,0.6,1.9,1.9,1.5c1.3-0.4,1.9-1.5,1.9-2.5v-4.6l1.1-0.3V25.9z M70.7,27.6L66.8,21l1.3-0.3l2.6,4.8l2.6-6.2l1.2-0.3L70.7,27.6z
	 M80.7,24.7L76,26v-7.5l4.7-1.3v0.9l-3.6,1v2.3l3.2-0.9v0.9l-3.2,0.9v2.3l3.6-1V24.7z M86.9,23l-4.1,1.1v-7.5l1.1-0.3v6.5l3-0.8V23z
	 M96.4,20.5l-4.7,1.3v-7.5l4.7-1.3V14l-3.6,1v2.3l3.2-0.9v0.9l-3.2,0.9v2.3l3.6-1V20.5z M101.6,19.3c-2.6,0.7-3.9-0.8-3.9-2.8
	c0-2,1.3-4.2,3.9-4.9c1.3-0.4,2-0.2,2.7,0.1l-0.5,1c-0.6-0.3-1.2-0.4-2.1-0.1c-2,0.5-2.8,2.1-2.8,3.6c0,1.4,0.7,2.7,2.8,2.1
	c0.9-0.2,1.7-0.8,2.3-1.4l0.5,0.7C103.8,18.2,103,18.9,101.6,19.3z M110.1,16.8l-1.6-2.6l-1.4,0.4v3l-1.1,0.3v-7.5l2.7-0.7
	c1.7-0.5,2.5,0.4,2.5,1.5c0,1-0.6,1.9-1.6,2.5l1.7,2.7L110.1,16.8z M114.4,15.7l-1.1,0.3V8.5l1.1-0.3V15.7z M123.6,13.3l-5.5-3.8
	v5.1L117,15V7.4l5.6,3.8V6l1.1-0.3V13.3z M110.1,11.6c0-0.7-0.5-1.1-1.6-0.8l-1.3,0.4v2.6l1.3-0.4C109.5,13.1,110.1,12.3,110.1,11.6
	z M53.8,25.3c-1.9,0.5-2.7,2.2-2.7,3.6c0,1.5,0.9,2.7,2.7,2.2c1.9-0.5,2.7-2.2,2.7-3.6C56.5,26,55.6,24.8,53.8,25.3z M53.8,25.3
	c-1.9,0.5-2.7,2.2-2.7,3.6c0,1.5,0.9,2.7,2.7,2.2c1.9-0.5,2.7-2.2,2.7-3.6C56.5,26,55.6,24.8,53.8,25.3z M108.5,10.7l-1.3,0.4v2.6
	l1.3-0.4c1-0.3,1.6-1,1.6-1.8C110.1,10.9,109.6,10.4,108.5,10.7z M108.5,10.7l-1.3,0.4v2.6l1.3-0.4c1-0.3,1.6-1,1.6-1.8
	C110.1,10.9,109.6,10.4,108.5,10.7z M53.8,25.3c-1.9,0.5-2.7,2.2-2.7,3.6c0,1.5,0.9,2.7,2.7,2.2c1.9-0.5,2.7-2.2,2.7-3.6
	C56.5,26,55.6,24.8,53.8,25.3z M108.5,10.7l-1.3,0.4v2.6l1.3-0.4c1-0.3,1.6-1,1.6-1.8C110.1,10.9,109.6,10.4,108.5,10.7z M53.8,25.3
	c-1.9,0.5-2.7,2.2-2.7,3.6c0,1.5,0.9,2.7,2.7,2.2c1.9-0.5,2.7-2.2,2.7-3.6C56.5,26,55.6,24.8,53.8,25.3z M53.8,25.3
	c-1.9,0.5-2.7,2.2-2.7,3.6c0,1.5,0.9,2.7,2.7,2.2c1.9-0.5,2.7-2.2,2.7-3.6C56.5,26,55.6,24.8,53.8,25.3z M108.5,10.7l-1.3,0.4v2.6
	l1.3-0.4c1-0.3,1.6-1,1.6-1.8C110.1,10.9,109.6,10.4,108.5,10.7z M22.9,67.9l-1.7,0.5V74l1.7-0.5c1.4-0.4,2.6-1.5,2.6-3.5
	C25.5,68.1,24.3,67.6,22.9,67.9z M78,53.2l-1.7,0.5v5.6l1.7-0.5c1.4-0.4,2.6-1.5,2.6-3.5C80.6,53.3,79.3,52.8,78,53.2z M78,53.2
	l-1.7,0.5v5.6l1.7-0.5c1.4-0.4,2.6-1.5,2.6-3.5C80.6,53.3,79.3,52.8,78,53.2z M22.9,67.9l-1.7,0.5V74l1.7-0.5
	c1.4-0.4,2.6-1.5,2.6-3.5C25.5,68.1,24.3,67.6,22.9,67.9z M0,68.3V84l92.4-24.4V43.9L0,68.3z M47.3,57.7l1.4-0.4l-1.8,2.2L46,59.7
	L47.3,57.7z M23,74.4l-2.8,0.8v-7.5l2.8-0.8c2.2-0.6,3.7,0.3,3.7,2.7C26.7,72,25.1,73.9,23,74.4z M33.2,71.7l-4.7,1.3v-7.5l4.7-1.3
	v0.9l-3.6,1v2.3l3.2-0.9v0.9l-3.2,0.9v2.3l3.6-1V71.7z M42.7,69.1l-4.1,1.1v-7.5l1.1-0.3V69l3-0.8V69.1z M48.9,67.5l-4.7,1.3v-7.5
	l4.7-1.3V61l-3.6,1v2.3l3.2-0.9v0.9l-3.2,0.9v2.3l3.6-1V67.5z M57.3,64.3c-0.8,0.8-1.8,1.6-3.4,2c-2.6,0.7-3.9-0.8-3.9-2.8
	c0-2,1.2-4.2,3.9-4.9c1.5-0.4,2.3-0.2,3,0.1l-0.5,1c-0.6-0.3-1.5-0.4-2.4-0.1c-2.1,0.6-2.8,2.1-2.8,3.6c0,1.4,0.7,2.7,2.8,2.1
	c0.9-0.2,1.7-0.7,2.2-1.2v-1.6L54,63v-0.9l3.3-0.9V64.3z M64.1,63.4l-4.7,1.3v-7.5l4.7-1.3v0.9l-3.6,1v2.3l3.2-0.9v0.9l-3.2,0.9v2.3
	l3.6-1V63.4z M72.7,61.2l-5.6-3.8v5.1l-1.1,0.3v-7.6l5.5,3.8v-5.1l1.1-0.3V61.2z M78,59.7l-2.8,0.8V53l2.8-0.8
	c2.2-0.6,3.7,0.3,3.7,2.7C81.7,57.2,80.2,59.1,78,59.7z M88.3,56.9l-4.7,1.3v-7.5l4.7-1.3v0.9l-3.6,1v2.3l3.2-0.9v0.9l-3.2,0.9V57
	l3.6-1V56.9z M78,53.2l-1.7,0.5v5.6l1.7-0.5c1.4-0.4,2.6-1.5,2.6-3.5C80.6,53.3,79.3,52.8,78,53.2z M22.9,67.9l-1.7,0.5V74l1.7-0.5
	c1.4-0.4,2.6-1.5,2.6-3.5C25.5,68.1,24.3,67.6,22.9,67.9z M22.9,67.9l-1.7,0.5V74l1.7-0.5c1.4-0.4,2.6-1.5,2.6-3.5
	C25.5,68.1,24.3,67.6,22.9,67.9z M78,53.2l-1.7,0.5v5.6l1.7-0.5c1.4-0.4,2.6-1.5,2.6-3.5C80.6,53.3,79.3,52.8,78,53.2z M78,53.2
	l-1.7,0.5v5.6l1.7-0.5c1.4-0.4,2.6-1.5,2.6-3.5C80.6,53.3,79.3,52.8,78,53.2z M22.9,67.9l-1.7,0.5V74l1.7-0.5
	c1.4-0.4,2.6-1.5,2.6-3.5C25.5,68.1,24.3,67.6,22.9,67.9z M22.9,67.9l-1.7,0.5V74l1.7-0.5c1.4-0.4,2.6-1.5,2.6-3.5
	C25.5,68.1,24.3,67.6,22.9,67.9z M78,53.2l-1.7,0.5v5.6l1.7-0.5c1.4-0.4,2.6-1.5,2.6-3.5C80.6,53.3,79.3,52.8,78,53.2z M78,53.2
	l-1.7,0.5v5.6l1.7-0.5c1.4-0.4,2.6-1.5,2.6-3.5C80.6,53.3,79.3,52.8,78,53.2z M22.9,67.9l-1.7,0.5V74l1.7-0.5
	c1.4-0.4,2.6-1.5,2.6-3.5C25.5,68.1,24.3,67.6,22.9,67.9z"/>
</svg>
