<?xml version="1.0" encoding="utf-8"?>
<!-- Generator: Adobe Illustrator 21.0.0, SVG Export Plug-In . SVG Version: 6.00 Build 0)  -->
<svg version="1.1" id="Calque_1" xmlns="http://www.w3.org/2000/svg" xmlns:xlink="http://www.w3.org/1999/xlink" x="0px" y="0px"
	 viewBox="0 0 98.5 98.5" style="enable-background:new 0 0 98.5 98.5;" xml:space="preserve">
<style type="text/css">
	.st0{fill:#FFFFFF;}
</style>
<path class="st0" d="M92.5,43.9c-0.3-2.8-2.4-5.2-5.7-4.8c-2.9,0.3-4.8,2.7-4.5,5.7c0.4,3.5,3.1,5.4,6,5.1
	C91.4,49.5,92.8,46.8,92.5,43.9z M87.8,47.7c-2.8,0.3-4.2-1-4.4-2.9c-0.2-2,1.1-3.6,3.7-3.9c2.7-0.3,4.1,1,4.3,2.9
	C91.5,45.8,90.3,47.5,87.8,47.7z M90,52.2c-2.8-0.5-4.2,4.1-5.8,3.8c-0.9-0.1-1.1-0.9-1-1.7c0.2-1.3,0.7-2,1.4-2.8l-1.2-0.7
	c-0.6,0.6-1.2,1.9-1.3,3c-0.3,1.9,0.1,3.9,2.2,4.2c2.6,0.4,4-4.2,5.7-3.9c1,0.2,1.2,1.1,1,2c-0.1,0.4-0.2,0.7-0.3,1l-1.8,0.5
	L89,58.1l2.5,0.7c0.4-0.6,0.7-1.5,0.8-2.4C92.5,54.4,91.9,52.5,90,52.2z M89,31.6c-0.8-1.8-1.4-3-2.2-4.4l-0.6,0.1l0,1.1L78,32.1
	c0.3,0.5,0.6,1.1,1,1.7l8.2-3.8l0.5,1c0.5,1.1,0,2.1-0.8,2.4c-0.8,0.4-2,0.1-2.8-1l-0.6,0.1L80.4,37c0,0,0.7,1.8,0.9,2.6l3.1-5.3
	c1.1,1.3,2.5,1.6,3.5,1.1C89.1,34.9,89.8,33.4,89,31.6z M12,38c-3.1-0.5-5.2,1.6-5.7,4.6c-0.5,2.8,0.9,5.7,4.2,6.2
	c2.9,0.5,5.4-1.3,5.9-4.2C17,41,15,38.5,12,38z M15.3,44.1c-0.3,2-2.1,3.2-4.6,2.7c-2.7-0.5-3.7-2.1-3.3-4c0.3-1.9,1.9-3.2,4.5-2.8
	C14.6,40.6,15.7,42.2,15.3,44.1z M16.5,55.3l-8.9,1.1l-0.1-1.1c-0.1-1.2,0.6-2,1.4-2.1c0.9-0.1,2,0.5,2.3,1.8l0.6,0.1l4.2-3.4
	c0-0.7-0.1-1.7-0.1-2.7l-4.5,4.1c-0.7-1.6-1.9-2.2-3-2.1c-1.3,0.2-2.4,1.4-2.2,3.3c0.1,1.4,0.7,4.3,0.8,4.8l0.6,0.1l0.3-1l8.9-1.1
	C16.7,56.7,16.6,55.8,16.5,55.3z M18.4,30l-0.6,0.5c0.6,1,1,2.6,0.3,4.1l-0.3,0.6l-8.1-4c-0.3,0.7-0.8,1.8-1,2.5l0.5,0.4l0.8-0.7
	l7.2,3.5l0,1.1l0.6,0.1c0.7-1.9,1.5-3.9,2.5-5.5L18.4,30z M26.1,75.8c0,0-1.6-1.4-2.3-2.2l-0.4,0.3l0.3,0.6l-3.9,4.4
	c0.3,0.3,0.7,0.7,1.1,1l3.9-4.3l0.4,0.3c0.7,0.6,0.7,1.2,0.3,1.7c-0.5,0.5-1.4,0.8-2.1,0.2l-0.3,0.5c0.1,0.1,0.2,0.2,0.3,0.3
	c1.3,1.2,2.6,0.9,3.3,0.1C27.3,78,27.3,76.8,26.1,75.8z M27.4,23.3l-1.1,0.5l-9.6-3.3l-0.8,0.9L21,31.6c0.2-0.4,0.5-0.8,0.8-1.2
	l-1.3-2.4l2.8-3.1l2.4,0.8c0.7-0.7,1.3-1.3,2-1.9L27.4,23.3z M20,26.9L18,23l0,0l4.1,1.5L20,26.9z M35.7,18.8l-4.8-8.9
	c-0.6,0.3-1.4,0.7-2,1l0.2,0.6l1.1-0.1l2.7,4.9l-8.3-2.7c-0.5,0.3-1.1,0.8-1.6,1.2l0.1,0.6l1.1-0.1l4.8,7.5l1.1-0.8l-3.9-6l9.1,3
	L35.7,18.8z M37.2,88.6l-0.3-6.3l-1.1-0.4L31,86.9l1,0.5l1-1.1l2.5,0.9l0,1.6c0.5,0.2,1.4,0.5,2,0.7l0.2-0.3L37.2,88.6z M35.4,84.5
	l0,1.8l-1.9-0.7l1.2-1.3c0.4-0.4,0.7-0.9,0.7-0.9h0C35.5,83.4,35.4,83.9,35.4,84.5z M45.6,10.1c-0.7-2.3-2.7-4.3-6.4-3.2
	c-1,0.3-3,0.8-4.8,1.5V9l1.1,0.1l2.6,8.6c1.7-0.6,4-1.2,4-1.2C45.4,15.6,46.3,12.6,45.6,10.1z M41.1,15.8l-1.5,0.5l-2.3-7.6l1.6-0.5
	c3-0.7,4.3,0.8,4.9,2.7C44.2,12.8,43.6,15,41.1,15.8z M51.3,88.3c1.1-0.5,1.5-1.2,1.5-2c0-0.9-0.7-1.8-2.2-1.9c0,0-2.2,0-3.1,0
	l-0.1,0.5l0.6,0.3V91h1.5v-5.8h0.5c0.9,0,1.2,0.6,1.2,1.1c0,0.7-0.4,1.4-1.3,1.6l-0.1,0.4l1.6,2.6c0.6,0,1.2-0.1,1.9-0.1L51.3,88.3z
	 M59.5,13.1l1.5,1L60.4,16c-0.9,0.2-1.7,0.1-2.4,0c-2.1-0.5-3.4-2.5-2.8-4.9c0.7-2.6,2.7-3.4,4.7-2.8c0.9,0.2,1.7,0.7,2.5,1.4
	l0.1,1.4l0.6,0.1l1-2.4c-1.2-0.7-2.4-1.3-3.6-1.6c-3.2-0.9-6.3,0-7.2,3.6c-0.9,3.4,1.4,5.5,4.3,6.2c1.5,0.4,3.3,0.5,4.5,0.3l1.1-4
	l-3.3-0.9L59.5,13.1z M63.7,81.3c-0.6,0.3-1.2,0.5-1.8,0.8l0.1,0.5l0.7,0L65,88c0.5-0.2,0.9-0.4,1.4-0.6L63.7,81.3z M72.6,12.5
	l-1.1-0.6l-8.9,6.8c0.4,0.2,0.9,0.4,1.3,0.6l2-1.6l3.5,2.1l-0.3,2.7c0.6,0.4,1.4,1.1,2.1,1.7l0.5-0.5l-0.6-0.8L72.6,12.5z
	 M69.7,18.6l-2.8-1.7l3.4-2.7l0,0L69.7,18.6z M66.8,26.4L49.4,40.3c0.6-2.1,0.3-4.8-1.4-6.7l13.1-10.4c-0.9-0.4-1.9-0.8-2.9-1.1
	L46,31.8c-0.9-0.5-2.1-0.9-4.6-0.9h-4.1l13-10.4c-0.4,0-0.7,0-1.1,0c-15.9,0-28.9,12.9-28.9,28.8c0,6.5,2.2,12.6,5.8,17.4v-7.8
	l10.7-8.5V34.6h2.4c3.3,0,4.7,2,4.7,3.7c0,2.3-1.7,4.1-5.2,4.6l-0.4,1.5l4.7,8.9L26.2,66.7c1.8,2.4,3.9,4.4,6.3,6.2v-7.8l11.6-9.2
	h5.9c0.7,4,3.5,6.4,7.5,6.4c1,0,2-0.2,3.1-0.5v-4.9l-4.5-1.3l0.3-2.2h9.3v10.9c-3.1,1.1-6.2,1.9-9.3,1.9c-3.9,0-7.4-1.2-9.9-4.3
	l-14,11.2c4.7,3.3,10.4,5.3,16.6,5.3c15.9,0,28.8-12.9,28.8-28.8C78.1,40,73.6,31.7,66.8,26.4z M64.9,49.2h-2l-1.1-4.4
	c-1.6-0.7-3-1-4.3-1c-5.1,0-7.8,4.6-7.7,10.6l-4.1-7.9c2.6-4.3,7.1-6.4,12.1-6.4c2.6,0,5.4,0.6,8,1.8L64.9,49.2z M77.9,77
	c-1.6-1.4-3.5,0.9-4.5,0c-0.4-0.4-0.2-0.9,0.1-1.3c0.2-0.2,0.3-0.3,0.5-0.4l1,0.4l0.4-0.5l-1.1-1c-0.5,0.2-0.9,0.6-1.3,1
	c-0.8,0.9-1.1,2.2-0.1,3.1c1.6,1.4,3.5-0.9,4.5,0c0.4,0.3,0.2,0.7,0,1c-0.4,0.5-0.9,0.8-1.7,1l0.5,0.9c0.6-0.2,1.3-0.7,1.8-1.2
	C78.5,79,78.8,77.8,77.9,77z M82.5,21.2c0,0-1.8-2.1-3.3-3.5l-0.6,0.2l0.3,1.1l-6.8,5.8l1.4,1.4l6.8-5.9l0.8,0.8
	c0.8,0.9,0.5,2.1-0.1,2.6c-0.7,0.6-1.9,0.7-2.9-0.2l-0.6,0.3l-1.7,5.1l1.6,2.2l1.5-5.9c1.4,0.9,2.8,0.8,3.7,0.1
	C83.5,24.4,83.8,22.7,82.5,21.2z M92.5,43.9c-0.3-2.8-2.4-5.2-5.7-4.8c-2.9,0.3-4.8,2.7-4.5,5.7c0.4,3.5,3.1,5.4,6,5.1
	C91.4,49.5,92.8,46.8,92.5,43.9z M87.8,47.7c-2.8,0.3-4.2-1-4.4-2.9c-0.2-2,1.1-3.6,3.7-3.9c2.7-0.3,4.1,1,4.3,2.9
	C91.5,45.8,90.3,47.5,87.8,47.7z M90,52.2c-2.8-0.5-4.2,4.1-5.8,3.8c-0.9-0.1-1.1-0.9-1-1.7c0.2-1.3,0.7-2,1.4-2.8l-1.2-0.7
	c-0.6,0.6-1.2,1.9-1.3,3c-0.3,1.9,0.1,3.9,2.2,4.2c2.6,0.4,4-4.2,5.7-3.9c1,0.2,1.2,1.1,1,2c-0.1,0.4-0.2,0.7-0.3,1l-1.8,0.5
	L89,58.1l2.5,0.7c0.4-0.6,0.7-1.5,0.8-2.4C92.5,54.4,91.9,52.5,90,52.2z M89,31.6c-0.8-1.8-1.4-3-2.2-4.4l-0.6,0.1l0,1.1L78,32.1
	c0.3,0.5,0.6,1.1,1,1.7l8.2-3.8l0.5,1c0.5,1.1,0,2.1-0.8,2.4c-0.8,0.4-2,0.1-2.8-1l-0.6,0.1L80.4,37c0,0,0.7,1.8,0.9,2.6l3.1-5.3
	c1.1,1.3,2.5,1.6,3.5,1.1C89.1,34.9,89.8,33.4,89,31.6z M82.5,21.2c0,0-1.8-2.1-3.3-3.5l-0.6,0.2l0.3,1.1l-6.8,5.8l1.4,1.4l6.8-5.9
	l0.8,0.8c0.8,0.9,0.5,2.1-0.1,2.6c-0.7,0.6-1.9,0.7-2.9-0.2l-0.6,0.3l-1.7,5.1l1.6,2.2l1.5-5.9c1.4,0.9,2.8,0.8,3.7,0.1
	C83.5,24.4,83.8,22.7,82.5,21.2z M77.9,77c-1.6-1.4-3.5,0.9-4.5,0c-0.4-0.4-0.2-0.9,0.1-1.3c0.2-0.2,0.3-0.3,0.5-0.4l1,0.4l0.4-0.5
	l-1.1-1c-0.5,0.2-0.9,0.6-1.3,1c-0.8,0.9-1.1,2.2-0.1,3.1c1.6,1.4,3.5-0.9,4.5,0c0.4,0.3,0.2,0.7,0,1c-0.4,0.5-0.9,0.8-1.7,1
	l0.5,0.9c0.6-0.2,1.3-0.7,1.8-1.2C78.5,79,78.8,77.8,77.9,77z M66.8,26.4L49.4,40.3c0.6-2.1,0.3-4.8-1.4-6.7l13.1-10.4
	c-0.9-0.4-1.9-0.8-2.9-1.1L46,31.8c-0.9-0.5-2.1-0.9-4.6-0.9h-4.1l13-10.4c-0.4,0-0.7,0-1.1,0c-15.9,0-28.9,12.9-28.9,28.8
	c0,6.5,2.2,12.6,5.8,17.4v-7.8l10.7-8.5V34.6h2.4c3.3,0,4.7,2,4.7,3.7c0,2.3-1.7,4.1-5.2,4.6l-0.4,1.5l4.7,8.9L26.2,66.7
	c1.8,2.4,3.9,4.4,6.3,6.2v-7.8l11.6-9.2h5.9c0.7,4,3.5,6.4,7.5,6.4c1,0,2-0.2,3.1-0.5v-4.9l-4.5-1.3l0.3-2.2h9.3v10.9
	c-3.1,1.1-6.2,1.9-9.3,1.9c-3.9,0-7.4-1.2-9.9-4.3l-14,11.2c4.7,3.3,10.4,5.3,16.6,5.3c15.9,0,28.8-12.9,28.8-28.8
	C78.1,40,73.6,31.7,66.8,26.4z M64.9,49.2h-2l-1.1-4.4c-1.6-0.7-3-1-4.3-1c-5.1,0-7.8,4.6-7.7,10.6l-4.1-7.9
	c2.6-4.3,7.1-6.4,12.1-6.4c2.6,0,5.4,0.6,8,1.8L64.9,49.2z M72.6,12.5l-1.1-0.6l-8.9,6.8c0.4,0.2,0.9,0.4,1.3,0.6l2-1.6l3.5,2.1
	l-0.3,2.7c0.6,0.4,1.4,1.1,2.1,1.7l0.5-0.5l-0.6-0.8L72.6,12.5z M69.7,18.6l-2.8-1.7l3.4-2.7l0,0L69.7,18.6z M63.7,81.3
	c-0.6,0.3-1.2,0.5-1.8,0.8l0.1,0.5l0.7,0L65,88c0.5-0.2,0.9-0.4,1.4-0.6L63.7,81.3z M59.5,13.1l1.5,1L60.4,16
	c-0.9,0.2-1.7,0.1-2.4,0c-2.1-0.5-3.4-2.5-2.8-4.9c0.7-2.6,2.7-3.4,4.7-2.8c0.9,0.2,1.7,0.7,2.5,1.4l0.1,1.4l0.6,0.1l1-2.4
	c-1.2-0.7-2.4-1.3-3.6-1.6c-3.2-0.9-6.3,0-7.2,3.6c-0.9,3.4,1.4,5.5,4.3,6.2c1.5,0.4,3.3,0.5,4.5,0.3l1.1-4l-3.3-0.9L59.5,13.1z
	 M51.3,88.3c1.1-0.5,1.5-1.2,1.5-2c0-0.9-0.7-1.8-2.2-1.9c0,0-2.2,0-3.1,0l-0.1,0.5l0.6,0.3V91h1.5v-5.8h0.5c0.9,0,1.2,0.6,1.2,1.1
	c0,0.7-0.4,1.4-1.3,1.6l-0.1,0.4l1.6,2.6c0.6,0,1.2-0.1,1.9-0.1L51.3,88.3z M45.6,10.1c-0.7-2.3-2.7-4.3-6.4-3.2
	c-1,0.3-3,0.8-4.8,1.5V9l1.1,0.1l2.6,8.6c1.7-0.6,4-1.2,4-1.2C45.4,15.6,46.3,12.6,45.6,10.1z M41.1,15.8l-1.5,0.5l-2.3-7.6l1.6-0.5
	c3-0.7,4.3,0.8,4.9,2.7C44.2,12.8,43.6,15,41.1,15.8z M37.2,88.6l-0.3-6.3l-1.1-0.4L31,86.9l1,0.5l1-1.1l2.5,0.9l0,1.6
	c0.5,0.2,1.4,0.5,2,0.7l0.2-0.3L37.2,88.6z M35.4,84.5l0,1.8l-1.9-0.7l1.2-1.3c0.4-0.4,0.7-0.9,0.7-0.9h0
	C35.5,83.4,35.4,83.9,35.4,84.5z M35.7,18.8l-4.8-8.9c-0.6,0.3-1.4,0.7-2,1l0.2,0.6l1.1-0.1l2.7,4.9l-8.3-2.7
	c-0.5,0.3-1.1,0.8-1.6,1.2l0.1,0.6l1.1-0.1l4.8,7.5l1.1-0.8l-3.9-6l9.1,3L35.7,18.8z M27.4,23.3l-1.1,0.5l-9.6-3.3l-0.8,0.9L21,31.6
	c0.2-0.4,0.5-0.8,0.8-1.2l-1.3-2.4l2.8-3.1l2.4,0.8c0.7-0.7,1.3-1.3,2-1.9L27.4,23.3z M20,26.9L18,23l0,0l4.1,1.5L20,26.9z
	 M26.1,75.8c0,0-1.6-1.4-2.3-2.2l-0.4,0.3l0.3,0.6l-3.9,4.4c0.3,0.3,0.7,0.7,1.1,1l3.9-4.3l0.4,0.3c0.7,0.6,0.7,1.2,0.3,1.7
	c-0.5,0.5-1.4,0.8-2.1,0.2l-0.3,0.5c0.1,0.1,0.2,0.2,0.3,0.3c1.3,1.2,2.6,0.9,3.3,0.1C27.3,78,27.3,76.8,26.1,75.8z M18.4,30
	l-0.6,0.5c0.6,1,1,2.6,0.3,4.1l-0.3,0.6l-8.1-4c-0.3,0.7-0.8,1.8-1,2.5l0.5,0.4l0.8-0.7l7.2,3.5l0,1.1l0.6,0.1
	c0.7-1.9,1.5-3.9,2.5-5.5L18.4,30z M16.5,55.3l-8.9,1.1l-0.1-1.1c-0.1-1.2,0.6-2,1.4-2.1c0.9-0.1,2,0.5,2.3,1.8l0.6,0.1l4.2-3.4
	c0-0.7-0.1-1.7-0.1-2.7l-4.5,4.1c-0.7-1.6-1.9-2.2-3-2.1c-1.3,0.2-2.4,1.4-2.2,3.3c0.1,1.4,0.7,4.3,0.8,4.8l0.6,0.1l0.3-1l8.9-1.1
	C16.7,56.7,16.6,55.8,16.5,55.3z M12,38c-3.1-0.5-5.2,1.6-5.7,4.6c-0.5,2.8,0.9,5.7,4.2,6.2c2.9,0.5,5.4-1.3,5.9-4.2
	C17,41,15,38.5,12,38z M15.3,44.1c-0.3,2-2.1,3.2-4.6,2.7c-2.7-0.5-3.7-2.1-3.3-4c0.3-1.9,1.9-3.2,4.5-2.8
	C14.6,40.6,15.7,42.2,15.3,44.1z M92.5,43.9c-0.3-2.8-2.4-5.2-5.7-4.8c-2.9,0.3-4.8,2.7-4.5,5.7c0.4,3.5,3.1,5.4,6,5.1
	C91.4,49.5,92.8,46.8,92.5,43.9z M87.8,47.7c-2.8,0.3-4.2-1-4.4-2.9c-0.2-2,1.1-3.6,3.7-3.9c2.7-0.3,4.1,1,4.3,2.9
	C91.5,45.8,90.3,47.5,87.8,47.7z M90,52.2c-2.8-0.5-4.2,4.1-5.8,3.8c-0.9-0.1-1.1-0.9-1-1.7c0.2-1.3,0.7-2,1.4-2.8l-1.2-0.7
	c-0.6,0.6-1.2,1.9-1.3,3c-0.3,1.9,0.1,3.9,2.2,4.2c2.6,0.4,4-4.2,5.7-3.9c1,0.2,1.2,1.1,1,2c-0.1,0.4-0.2,0.7-0.3,1l-1.8,0.5
	L89,58.1l2.5,0.7c0.4-0.6,0.7-1.5,0.8-2.4C92.5,54.4,91.9,52.5,90,52.2z M89,31.6c-0.8-1.8-1.4-3-2.2-4.4l-0.6,0.1l0,1.1L78,32.1
	c0.3,0.5,0.6,1.1,1,1.7l8.2-3.8l0.5,1c0.5,1.1,0,2.1-0.8,2.4c-0.8,0.4-2,0.1-2.8-1l-0.6,0.1L80.4,37c0,0,0.7,1.8,0.9,2.6l3.1-5.3
	c1.1,1.3,2.5,1.6,3.5,1.1C89.1,34.9,89.8,33.4,89,31.6z M12,38c-3.1-0.5-5.2,1.6-5.7,4.6c-0.5,2.8,0.9,5.7,4.2,6.2
	c2.9,0.5,5.4-1.3,5.9-4.2C17,41,15,38.5,12,38z M15.3,44.1c-0.3,2-2.1,3.2-4.6,2.7c-2.7-0.5-3.7-2.1-3.3-4c0.3-1.9,1.9-3.2,4.5-2.8
	C14.6,40.6,15.7,42.2,15.3,44.1z M16.5,55.3l-8.9,1.1l-0.1-1.1c-0.1-1.2,0.6-2,1.4-2.1c0.9-0.1,2,0.5,2.3,1.8l0.6,0.1l4.2-3.4
	c0-0.7-0.1-1.7-0.1-2.7l-4.5,4.1c-0.7-1.6-1.9-2.2-3-2.1c-1.3,0.2-2.4,1.4-2.2,3.3c0.1,1.4,0.7,4.3,0.8,4.8l0.6,0.1l0.3-1l8.9-1.1
	C16.7,56.7,16.6,55.8,16.5,55.3z M18.4,30l-0.6,0.5c0.6,1,1,2.6,0.3,4.1l-0.3,0.6l-8.1-4c-0.3,0.7-0.8,1.8-1,2.5l0.5,0.4l0.8-0.7
	l7.2,3.5l0,1.1l0.6,0.1c0.7-1.9,1.5-3.9,2.5-5.5L18.4,30z M26.1,75.8c0,0-1.6-1.4-2.3-2.2l-0.4,0.3l0.3,0.6l-3.9,4.4
	c0.3,0.3,0.7,0.7,1.1,1l3.9-4.3l0.4,0.3c0.7,0.6,0.7,1.2,0.3,1.7c-0.5,0.5-1.4,0.8-2.1,0.2l-0.3,0.5c0.1,0.1,0.2,0.2,0.3,0.3
	c1.3,1.2,2.6,0.9,3.3,0.1C27.3,78,27.3,76.8,26.1,75.8z M27.4,23.3l-1.1,0.5l-9.6-3.3l-0.8,0.9L21,31.6c0.2-0.4,0.5-0.8,0.8-1.2
	l-1.3-2.4l2.8-3.1l2.4,0.8c0.7-0.7,1.3-1.3,2-1.9L27.4,23.3z M20,26.9L18,23l0,0l4.1,1.5L20,26.9z M35.7,18.8l-4.8-8.9
	c-0.6,0.3-1.4,0.7-2,1l0.2,0.6l1.1-0.1l2.7,4.9l-8.3-2.7c-0.5,0.3-1.1,0.8-1.6,1.2l0.1,0.6l1.1-0.1l4.8,7.5l1.1-0.8l-3.9-6l9.1,3
	L35.7,18.8z M37.2,88.6l-0.3-6.3l-1.1-0.4L31,86.9l1,0.5l1-1.1l2.5,0.9l0,1.6c0.5,0.2,1.4,0.5,2,0.7l0.2-0.3L37.2,88.6z M35.4,84.5
	l0,1.8l-1.9-0.7l1.2-1.3c0.4-0.4,0.7-0.9,0.7-0.9h0C35.5,83.4,35.4,83.9,35.4,84.5z M45.6,10.1c-0.7-2.3-2.7-4.3-6.4-3.2
	c-1,0.3-3,0.8-4.8,1.5V9l1.1,0.1l2.6,8.6c1.7-0.6,4-1.2,4-1.2C45.4,15.6,46.3,12.6,45.6,10.1z M41.1,15.8l-1.5,0.5l-2.3-7.6l1.6-0.5
	c3-0.7,4.3,0.8,4.9,2.7C44.2,12.8,43.6,15,41.1,15.8z M51.3,88.3c1.1-0.5,1.5-1.2,1.5-2c0-0.9-0.7-1.8-2.2-1.9c0,0-2.2,0-3.1,0
	l-0.1,0.5l0.6,0.3V91h1.5v-5.8h0.5c0.9,0,1.2,0.6,1.2,1.1c0,0.7-0.4,1.4-1.3,1.6l-0.1,0.4l1.6,2.6c0.6,0,1.2-0.1,1.9-0.1L51.3,88.3z
	 M59.5,13.1l1.5,1L60.4,16c-0.9,0.2-1.7,0.1-2.4,0c-2.1-0.5-3.4-2.5-2.8-4.9c0.7-2.6,2.7-3.4,4.7-2.8c0.9,0.2,1.7,0.7,2.5,1.4
	l0.1,1.4l0.6,0.1l1-2.4c-1.2-0.7-2.4-1.3-3.6-1.6c-3.2-0.9-6.3,0-7.2,3.6c-0.9,3.4,1.4,5.5,4.3,6.2c1.5,0.4,3.3,0.5,4.5,0.3l1.1-4
	l-3.3-0.9L59.5,13.1z M63.7,81.3c-0.6,0.3-1.2,0.5-1.8,0.8l0.1,0.5l0.7,0L65,88c0.5-0.2,0.9-0.4,1.4-0.6L63.7,81.3z M72.6,12.5
	l-1.1-0.6l-8.9,6.8c0.4,0.2,0.9,0.4,1.3,0.6l2-1.6l3.5,2.1l-0.3,2.7c0.6,0.4,1.4,1.1,2.1,1.7l0.5-0.5l-0.6-0.8L72.6,12.5z
	 M69.7,18.6l-2.8-1.7l3.4-2.7l0,0L69.7,18.6z M66.8,26.4L49.4,40.3c0.6-2.1,0.3-4.8-1.4-6.7l13.1-10.4c-0.9-0.4-1.9-0.8-2.9-1.1
	L46,31.8c-0.9-0.5-2.1-0.9-4.6-0.9h-4.1l13-10.4c-0.4,0-0.7,0-1.1,0c-15.9,0-28.9,12.9-28.9,28.8c0,6.5,2.2,12.6,5.8,17.4v-7.8
	l10.7-8.5V34.6h2.4c3.3,0,4.7,2,4.7,3.7c0,2.3-1.7,4.1-5.2,4.6l-0.4,1.5l4.7,8.9L26.2,66.7c1.8,2.4,3.9,4.4,6.3,6.2v-7.8l11.6-9.2
	h5.9c0.7,4,3.5,6.4,7.5,6.4c1,0,2-0.2,3.1-0.5v-4.9l-4.5-1.3l0.3-2.2h9.3v10.9c-3.1,1.1-6.2,1.9-9.3,1.9c-3.9,0-7.4-1.2-9.9-4.3
	l-14,11.2c4.7,3.3,10.4,5.3,16.6,5.3c15.9,0,28.8-12.9,28.8-28.8C78.1,40,73.6,31.7,66.8,26.4z M64.9,49.2h-2l-1.1-4.4
	c-1.6-0.7-3-1-4.3-1c-5.1,0-7.8,4.6-7.7,10.6l-4.1-7.9c2.6-4.3,7.1-6.4,12.1-6.4c2.6,0,5.4,0.6,8,1.8L64.9,49.2z M77.9,77
	c-1.6-1.4-3.5,0.9-4.5,0c-0.4-0.4-0.2-0.9,0.1-1.3c0.2-0.2,0.3-0.3,0.5-0.4l1,0.4l0.4-0.5l-1.1-1c-0.5,0.2-0.9,0.6-1.3,1
	c-0.8,0.9-1.1,2.2-0.1,3.1c1.6,1.4,3.5-0.9,4.5,0c0.4,0.3,0.2,0.7,0,1c-0.4,0.5-0.9,0.8-1.7,1l0.5,0.9c0.6-0.2,1.3-0.7,1.8-1.2
	C78.5,79,78.8,77.8,77.9,77z M82.5,21.2c0,0-1.8-2.1-3.3-3.5l-0.6,0.2l0.3,1.1l-6.8,5.8l1.4,1.4l6.8-5.9l0.8,0.8
	c0.8,0.9,0.5,2.1-0.1,2.6c-0.7,0.6-1.9,0.7-2.9-0.2l-0.6,0.3l-1.7,5.1l1.6,2.2l1.5-5.9c1.4,0.9,2.8,0.8,3.7,0.1
	C83.5,24.4,83.8,22.7,82.5,21.2z M86.7,39c-2.9,0.3-4.8,2.7-4.5,5.7c0.4,3.5,3.1,5.4,6,5.1c3.2-0.3,4.6-3,4.2-5.9
	C92.2,41.1,90.1,38.7,86.7,39z M91.4,43.9c0.2,1.9-1,3.6-3.6,3.9c-2.8,0.3-4.2-1-4.4-2.9c-0.2-2,1.1-3.6,3.7-3.9
	C89.7,40.7,91.1,41.9,91.4,43.9z M90,52.2c-2.8-0.5-4.2,4.1-5.8,3.8c-0.9-0.1-1.1-0.9-1-1.7c0.2-1.3,0.7-2,1.4-2.8l-1.2-0.7
	c-0.6,0.6-1.2,1.9-1.3,3c-0.3,1.9,0.1,3.9,2.2,4.2c2.6,0.4,4-4.2,5.7-3.9c1,0.2,1.2,1.1,1,2c-0.1,0.4-0.2,0.7-0.3,1l-1.8,0.5
	L89,58.1l2.5,0.7c0.4-0.6,0.7-1.5,0.8-2.4C92.5,54.4,91.9,52.5,90,52.2z M87.9,35.4c1.2-0.5,1.9-2,1.1-3.8c-0.8-1.8-1.4-3-2.2-4.4
	l-0.6,0.1l0,1.1L78,32.1c0.3,0.5,0.6,1.1,1,1.7l8.2-3.8l0.5,1c0.5,1.1,0,2.1-0.8,2.4c-0.8,0.4-2,0.1-2.8-1l-0.6,0.1L80.4,37
	c0,0,0.7,1.8,0.9,2.6l3.1-5.3C85.5,35.6,86.9,35.9,87.9,35.4z M72.1,24.8l1.4,1.4l6.8-5.9l0.8,0.8c0.8,0.9,0.5,2.1-0.1,2.6
	c-0.7,0.6-1.9,0.7-2.9-0.2l-0.6,0.3l-1.7,5.1l1.6,2.2l1.5-5.9c1.4,0.9,2.8,0.8,3.7,0.1c1-0.8,1.3-2.5,0-4c0,0-1.8-2.1-3.3-3.5
	l-0.6,0.2l0.3,1.1L72.1,24.8z M73.4,77c-0.4-0.4-0.2-0.9,0.1-1.3c0.2-0.2,0.3-0.3,0.5-0.4l1,0.4l0.4-0.5l-1.1-1
	c-0.5,0.2-0.9,0.6-1.3,1c-0.8,0.9-1.1,2.2-0.1,3.1c1.6,1.4,3.5-0.9,4.5,0c0.4,0.3,0.2,0.7,0,1c-0.4,0.5-0.9,0.8-1.7,1l0.5,0.9
	c0.6-0.2,1.3-0.7,1.8-1.2c0.8-0.9,1.1-2.2,0.1-3C76.3,75.6,74.4,77.9,73.4,77z M66.8,26.4L49.4,40.3c0.6-2.1,0.3-4.8-1.4-6.7
	l13.1-10.4c-0.9-0.4-1.9-0.8-2.9-1.1L46,31.8c-0.9-0.5-2.1-0.9-4.6-0.9h-4.1l13-10.4c-0.4,0-0.7,0-1.1,0
	c-15.9,0-28.9,12.9-28.9,28.8c0,6.5,2.2,12.6,5.8,17.4v-7.8l10.7-8.5V34.6h2.4c3.3,0,4.7,2,4.7,3.7c0,2.3-1.7,4.1-5.2,4.6l-0.4,1.5
	l4.7,8.9L26.2,66.7c1.8,2.4,3.9,4.4,6.3,6.2v-7.8l11.6-9.2h5.9c0.7,4,3.5,6.4,7.5,6.4c1,0,2-0.2,3.1-0.5v-4.9l-4.5-1.3l0.3-2.2h9.3
	v10.9c-3.1,1.1-6.2,1.9-9.3,1.9c-3.9,0-7.4-1.2-9.9-4.3l-14,11.2c4.7,3.3,10.4,5.3,16.6,5.3c15.9,0,28.8-12.9,28.8-28.8
	C78.1,40,73.6,31.7,66.8,26.4z M64.9,49.2h-2l-1.1-4.4c-1.6-0.7-3-1-4.3-1c-5.1,0-7.8,4.6-7.7,10.6l-4.1-7.9
	c2.6-4.3,7.1-6.4,12.1-6.4c2.6,0,5.4,0.6,8,1.8L64.9,49.2z M64,19.2l2-1.6l3.5,2.1l-0.3,2.7c0.6,0.4,1.4,1.1,2.1,1.7l0.5-0.5
	l-0.6-0.8l1.4-10.2l-1.1-0.6l-8.9,6.8C63.1,18.8,63.5,19,64,19.2z M70.4,14.2L70.4,14.2l-0.7,4.3l-2.8-1.7L70.4,14.2z M61.9,82.1
	l0.1,0.5l0.7,0L65,88c0.5-0.2,0.9-0.4,1.4-0.6l-2.7-6C63.1,81.6,62.5,81.9,61.9,82.1z M57.5,17.1c1.5,0.4,3.3,0.5,4.5,0.3l1.1-4
	l-3.3-0.9l-0.3,0.6l1.5,1L60.4,16c-0.9,0.2-1.7,0.1-2.4,0c-2.1-0.5-3.4-2.5-2.8-4.9c0.7-2.6,2.7-3.4,4.7-2.8
	c0.9,0.2,1.7,0.7,2.5,1.4l0.1,1.4l0.6,0.1l1-2.4c-1.2-0.7-2.4-1.3-3.6-1.6c-3.2-0.9-6.3,0-7.2,3.6C52.3,14.3,54.6,16.3,57.5,17.1z
	 M52.8,86.3c0-0.9-0.7-1.8-2.2-1.9c0,0-2.2,0-3.1,0l-0.1,0.5l0.6,0.3V91h1.5v-5.8h0.5c0.9,0,1.2,0.6,1.2,1.1c0,0.7-0.4,1.4-1.3,1.6
	l-0.1,0.4l1.6,2.6c0.6,0,1.2-0.1,1.9-0.1l-2.1-2.5C52.4,87.9,52.8,87.1,52.8,86.3z M38,17.8c1.7-0.6,4-1.2,4-1.2
	c3.4-1,4.3-4,3.6-6.5c-0.7-2.3-2.7-4.3-6.4-3.2c-1,0.3-3,0.8-4.8,1.5V9l1.1,0.1L38,17.8z M38.8,8.2c3-0.7,4.3,0.8,4.9,2.7
	c0.6,1.8-0.1,4.1-2.6,4.9l-1.5,0.5l-2.3-7.6L38.8,8.2z M36.9,82.2l-1.1-0.4L31,86.9l1,0.5l1-1.1l2.5,0.9l0,1.6
	c0.5,0.2,1.4,0.5,2,0.7l0.2-0.3l-0.5-0.5L36.9,82.2z M35.4,84.5l0,1.8l-1.9-0.7l1.2-1.3c0.4-0.4,0.7-0.9,0.7-0.9h0
	C35.5,83.4,35.4,83.9,35.4,84.5z M24,15.3l4.8,7.5l1.1-0.8l-3.9-6l9.1,3l0.6-0.3l-4.8-8.9c-0.6,0.3-1.4,0.7-2,1l0.2,0.6l1.1-0.1
	l2.7,4.9l-8.3-2.7c-0.5,0.3-1.1,0.8-1.6,1.2l0.1,0.6L24,15.3z M21.8,30.4l-1.3-2.4l2.8-3.1l2.4,0.8c0.7-0.7,1.3-1.3,2-1.9l-0.3-0.5
	l-1.1,0.5l-9.6-3.3l-0.8,0.9L21,31.6C21.2,31.2,21.5,30.7,21.8,30.4z M18,23L18,23l4.1,1.5L20,26.9L18,23z M23.8,73.6l-0.4,0.3
	l0.3,0.6l-3.9,4.4c0.3,0.3,0.7,0.7,1.1,1l3.9-4.3l0.4,0.3c0.7,0.6,0.7,1.2,0.3,1.7c-0.5,0.5-1.4,0.8-2.1,0.2l-0.3,0.5
	c0.1,0.1,0.2,0.2,0.3,0.3c1.3,1.2,2.6,0.9,3.3,0.1c0.6-0.7,0.7-1.8-0.5-2.9C26.1,75.8,24.5,74.3,23.8,73.6z M18.4,30l-0.6,0.5
	c0.6,1,1,2.6,0.3,4.1l-0.3,0.6l-8.1-4c-0.3,0.7-0.8,1.8-1,2.5l0.5,0.4l0.8-0.7l7.2,3.5l0,1.1l0.6,0.1c0.7-1.9,1.5-3.9,2.5-5.5
	L18.4,30z M7.6,56.4l-0.1-1.1c-0.1-1.2,0.6-2,1.4-2.1c0.9-0.1,2,0.5,2.3,1.8l0.6,0.1l4.2-3.4c0-0.7-0.1-1.7-0.1-2.7l-4.5,4.1
	c-0.7-1.6-1.9-2.2-3-2.1c-1.3,0.2-2.4,1.4-2.2,3.3c0.1,1.4,0.7,4.3,0.8,4.8l0.6,0.1l0.3-1l8.9-1.1c-0.1-0.5-0.3-1.4-0.4-1.9
	L7.6,56.4z M10.5,48.8c2.9,0.5,5.4-1.3,5.9-4.2C17,41,15,38.5,12,38c-3.1-0.5-5.2,1.6-5.7,4.6C5.8,45.3,7.2,48.2,10.5,48.8z
	 M7.4,42.8c0.3-1.9,1.9-3.2,4.5-2.8c2.7,0.5,3.8,2.1,3.4,4c-0.3,2-2.1,3.2-4.6,2.7C8.1,46.4,7.1,44.8,7.4,42.8z M86.7,39
	c-2.9,0.3-4.8,2.7-4.5,5.7c0.4,3.5,3.1,5.4,6,5.1c3.2-0.3,4.6-3,4.2-5.9C92.2,41.1,90.1,38.7,86.7,39z M91.4,43.9
	c0.2,1.9-1,3.6-3.6,3.9c-2.8,0.3-4.2-1-4.4-2.9c-0.2-2,1.1-3.6,3.7-3.9C89.7,40.7,91.1,41.9,91.4,43.9z M90,52.2
	c-2.8-0.5-4.2,4.1-5.8,3.8c-0.9-0.1-1.1-0.9-1-1.7c0.2-1.3,0.7-2,1.4-2.8l-1.2-0.7c-0.6,0.6-1.2,1.9-1.3,3c-0.3,1.9,0.1,3.9,2.2,4.2
	c2.6,0.4,4-4.2,5.7-3.9c1,0.2,1.2,1.1,1,2c-0.1,0.4-0.2,0.7-0.3,1l-1.8,0.5L89,58.1l2.5,0.7c0.4-0.6,0.7-1.5,0.8-2.4
	C92.5,54.4,91.9,52.5,90,52.2z M87.9,35.4c1.2-0.5,1.9-2,1.1-3.8c-0.8-1.8-1.4-3-2.2-4.4l-0.6,0.1l0,1.1L78,32.1
	c0.3,0.5,0.6,1.1,1,1.7l8.2-3.8l0.5,1c0.5,1.1,0,2.1-0.8,2.4c-0.8,0.4-2,0.1-2.8-1l-0.6,0.1L80.4,37c0,0,0.7,1.8,0.9,2.6l3.1-5.3
	C85.5,35.6,86.9,35.9,87.9,35.4z M49.2,0C22,0,0,22,0,49.2c0,27.2,22,49.2,49.2,49.2c27.2,0,49.2-22,49.2-49.2
	C98.5,22,76.4,0,49.2,0z M49.2,97.3c-26.5,0-48-21.5-48-48c0-26.5,21.5-48,48-48c26.5,0,48,21.5,48,48
	C97.3,75.8,75.8,97.3,49.2,97.3z M72.1,24.8l1.4,1.4l6.8-5.9l0.8,0.8c0.8,0.9,0.5,2.1-0.1,2.6c-0.7,0.6-1.9,0.7-2.9-0.2l-0.6,0.3
	l-1.7,5.1l1.6,2.2l1.5-5.9c1.4,0.9,2.8,0.8,3.7,0.1c1-0.8,1.3-2.5,0-4c0,0-1.8-2.1-3.3-3.5l-0.6,0.2l0.3,1.1L72.1,24.8z M73.4,77
	c-0.4-0.4-0.2-0.9,0.1-1.3c0.2-0.2,0.3-0.3,0.5-0.4l1,0.4l0.4-0.5l-1.1-1c-0.5,0.2-0.9,0.6-1.3,1c-0.8,0.9-1.1,2.2-0.1,3.1
	c1.6,1.4,3.5-0.9,4.5,0c0.4,0.3,0.2,0.7,0,1c-0.4,0.5-0.9,0.8-1.7,1l0.5,0.9c0.6-0.2,1.3-0.7,1.8-1.2c0.8-0.9,1.1-2.2,0.1-3
	C76.3,75.6,74.4,77.9,73.4,77z M66.8,26.4L49.4,40.3c0.6-2.1,0.3-4.8-1.4-6.7l13.1-10.4c-0.9-0.4-1.9-0.8-2.9-1.1L46,31.8
	c-0.9-0.5-2.1-0.9-4.6-0.9h-4.1l13-10.4c-0.4,0-0.7,0-1.1,0c-15.9,0-28.9,12.9-28.9,28.8c0,6.5,2.2,12.6,5.8,17.4v-7.8l10.7-8.5
	V34.6h2.4c3.3,0,4.7,2,4.7,3.7c0,2.3-1.7,4.1-5.2,4.6l-0.4,1.5l4.7,8.9L26.2,66.7c1.8,2.4,3.9,4.4,6.3,6.2v-7.8l11.6-9.2h5.9
	c0.7,4,3.5,6.4,7.5,6.4c1,0,2-0.2,3.1-0.5v-4.9l-4.5-1.3l0.3-2.2h9.3v10.9c-3.1,1.1-6.2,1.9-9.3,1.9c-3.9,0-7.4-1.2-9.9-4.3
	l-14,11.2c4.7,3.3,10.4,5.3,16.6,5.3c15.9,0,28.8-12.9,28.8-28.8C78.1,40,73.6,31.7,66.8,26.4z M64.9,49.2h-2l-1.1-4.4
	c-1.6-0.7-3-1-4.3-1c-5.1,0-7.8,4.6-7.7,10.6l-4.1-7.9c2.6-4.3,7.1-6.4,12.1-6.4c2.6,0,5.4,0.6,8,1.8L64.9,49.2z M64,19.2l2-1.6
	l3.5,2.1l-0.3,2.7c0.6,0.4,1.4,1.1,2.1,1.7l0.5-0.5l-0.6-0.8l1.4-10.2l-1.1-0.6l-8.9,6.8C63.1,18.8,63.5,19,64,19.2z M70.4,14.2
	L70.4,14.2l-0.7,4.3l-2.8-1.7L70.4,14.2z M61.9,82.1l0.1,0.5l0.7,0L65,88c0.5-0.2,0.9-0.4,1.4-0.6l-2.7-6
	C63.1,81.6,62.5,81.9,61.9,82.1z M57.5,17.1c1.5,0.4,3.3,0.5,4.5,0.3l1.1-4l-3.3-0.9l-0.3,0.6l1.5,1L60.4,16c-0.9,0.2-1.7,0.1-2.4,0
	c-2.1-0.5-3.4-2.5-2.8-4.9c0.7-2.6,2.7-3.4,4.7-2.8c0.9,0.2,1.7,0.7,2.5,1.4l0.1,1.4l0.6,0.1l1-2.4c-1.2-0.7-2.4-1.3-3.6-1.6
	c-3.2-0.9-6.3,0-7.2,3.6C52.3,14.3,54.6,16.3,57.5,17.1z M52.8,86.3c0-0.9-0.7-1.8-2.2-1.9c0,0-2.2,0-3.1,0l-0.1,0.5l0.6,0.3V91h1.5
	v-5.8h0.5c0.9,0,1.2,0.6,1.2,1.1c0,0.7-0.4,1.4-1.3,1.6l-0.1,0.4l1.6,2.6c0.6,0,1.2-0.1,1.9-0.1l-2.1-2.5
	C52.4,87.9,52.8,87.1,52.8,86.3z M38,17.8c1.7-0.6,4-1.2,4-1.2c3.4-1,4.3-4,3.6-6.5c-0.7-2.3-2.7-4.3-6.4-3.2c-1,0.3-3,0.8-4.8,1.5
	V9l1.1,0.1L38,17.8z M38.8,8.2c3-0.7,4.3,0.8,4.9,2.7c0.6,1.8-0.1,4.1-2.6,4.9l-1.5,0.5l-2.3-7.6L38.8,8.2z M36.9,82.2l-1.1-0.4
	L31,86.9l1,0.5l1-1.1l2.5,0.9l0,1.6c0.5,0.2,1.4,0.5,2,0.7l0.2-0.3l-0.5-0.5L36.9,82.2z M35.4,84.5l0,1.8l-1.9-0.7l1.2-1.3
	c0.4-0.4,0.7-0.9,0.7-0.9h0C35.5,83.4,35.4,83.9,35.4,84.5z M24,15.3l4.8,7.5l1.1-0.8l-3.9-6l9.1,3l0.6-0.3l-4.8-8.9
	c-0.6,0.3-1.4,0.7-2,1l0.2,0.6l1.1-0.1l2.7,4.9l-8.3-2.7c-0.5,0.3-1.1,0.8-1.6,1.2l0.1,0.6L24,15.3z M21.8,30.4l-1.3-2.4l2.8-3.1
	l2.4,0.8c0.7-0.7,1.3-1.3,2-1.9l-0.3-0.5l-1.1,0.5l-9.6-3.3l-0.8,0.9L21,31.6C21.2,31.2,21.5,30.7,21.8,30.4z M18,23L18,23l4.1,1.5
	L20,26.9L18,23z M23.8,73.6l-0.4,0.3l0.3,0.6l-3.9,4.4c0.3,0.3,0.7,0.7,1.1,1l3.9-4.3l0.4,0.3c0.7,0.6,0.7,1.2,0.3,1.7
	c-0.5,0.5-1.4,0.8-2.1,0.2l-0.3,0.5c0.1,0.1,0.2,0.2,0.3,0.3c1.3,1.2,2.6,0.9,3.3,0.1c0.6-0.7,0.7-1.8-0.5-2.9
	C26.1,75.8,24.5,74.3,23.8,73.6z M18.4,30l-0.6,0.5c0.6,1,1,2.6,0.3,4.1l-0.3,0.6l-8.1-4c-0.3,0.7-0.8,1.8-1,2.5l0.5,0.4l0.8-0.7
	l7.2,3.5l0,1.1l0.6,0.1c0.7-1.9,1.5-3.9,2.5-5.5L18.4,30z M7.6,56.4l-0.1-1.1c-0.1-1.2,0.6-2,1.4-2.1c0.9-0.1,2,0.5,2.3,1.8l0.6,0.1
	l4.2-3.4c0-0.7-0.1-1.7-0.1-2.7l-4.5,4.1c-0.7-1.6-1.9-2.2-3-2.1c-1.3,0.2-2.4,1.4-2.2,3.3c0.1,1.4,0.7,4.3,0.8,4.8l0.6,0.1l0.3-1
	l8.9-1.1c-0.1-0.5-0.3-1.4-0.4-1.9L7.6,56.4z M10.5,48.8c2.9,0.5,5.4-1.3,5.9-4.2C17,41,15,38.5,12,38c-3.1-0.5-5.2,1.6-5.7,4.6
	C5.8,45.3,7.2,48.2,10.5,48.8z M7.4,42.8c0.3-1.9,1.9-3.2,4.5-2.8c2.7,0.5,3.8,2.1,3.4,4c-0.3,2-2.1,3.2-4.6,2.7
	C8.1,46.4,7.1,44.8,7.4,42.8z M89,31.6c-0.8-1.8-1.4-3-2.2-4.4l-0.6,0.1l0,1.1L78,32.1c0.3,0.5,0.6,1.1,1,1.7l8.2-3.8l0.5,1
	c0.5,1.1,0,2.1-0.8,2.4c-0.8,0.4-2,0.1-2.8-1l-0.6,0.1L80.4,37c0,0,0.7,1.8,0.9,2.6l3.1-5.3c1.1,1.3,2.5,1.6,3.5,1.1
	C89.1,34.9,89.8,33.4,89,31.6z M90,52.2c-2.8-0.5-4.2,4.1-5.8,3.8c-0.9-0.1-1.1-0.9-1-1.7c0.2-1.3,0.7-2,1.4-2.8l-1.2-0.7
	c-0.6,0.6-1.2,1.9-1.3,3c-0.3,1.9,0.1,3.9,2.2,4.2c2.6,0.4,4-4.2,5.7-3.9c1,0.2,1.2,1.1,1,2c-0.1,0.4-0.2,0.7-0.3,1l-1.8,0.5
	L89,58.1l2.5,0.7c0.4-0.6,0.7-1.5,0.8-2.4C92.5,54.4,91.9,52.5,90,52.2z M92.5,43.9c-0.3-2.8-2.4-5.2-5.7-4.8
	c-2.9,0.3-4.8,2.7-4.5,5.7c0.4,3.5,3.1,5.4,6,5.1C91.4,49.5,92.8,46.8,92.5,43.9z M87.8,47.7c-2.8,0.3-4.2-1-4.4-2.9
	c-0.2-2,1.1-3.6,3.7-3.9c2.7-0.3,4.1,1,4.3,2.9C91.5,45.8,90.3,47.5,87.8,47.7z M12,38c-3.1-0.5-5.2,1.6-5.7,4.6
	c-0.5,2.8,0.9,5.7,4.2,6.2c2.9,0.5,5.4-1.3,5.9-4.2C17,41,15,38.5,12,38z M15.3,44.1c-0.3,2-2.1,3.2-4.6,2.7c-2.7-0.5-3.7-2.1-3.3-4
	c0.3-1.9,1.9-3.2,4.5-2.8C14.6,40.6,15.7,42.2,15.3,44.1z M16.5,55.3l-8.9,1.1l-0.1-1.1c-0.1-1.2,0.6-2,1.4-2.1
	c0.9-0.1,2,0.5,2.3,1.8l0.6,0.1l4.2-3.4c0-0.7-0.1-1.7-0.1-2.7l-4.5,4.1c-0.7-1.6-1.9-2.2-3-2.1c-1.3,0.2-2.4,1.4-2.2,3.3
	c0.1,1.4,0.7,4.3,0.8,4.8l0.6,0.1l0.3-1l8.9-1.1C16.7,56.7,16.6,55.8,16.5,55.3z M18.4,30l-0.6,0.5c0.6,1,1,2.6,0.3,4.1l-0.3,0.6
	l-8.1-4c-0.3,0.7-0.8,1.8-1,2.5l0.5,0.4l0.8-0.7l7.2,3.5l0,1.1l0.6,0.1c0.7-1.9,1.5-3.9,2.5-5.5L18.4,30z M26.1,75.8
	c0,0-1.6-1.4-2.3-2.2l-0.4,0.3l0.3,0.6l-3.9,4.4c0.3,0.3,0.7,0.7,1.1,1l3.9-4.3l0.4,0.3c0.7,0.6,0.7,1.2,0.3,1.7
	c-0.5,0.5-1.4,0.8-2.1,0.2l-0.3,0.5c0.1,0.1,0.2,0.2,0.3,0.3c1.3,1.2,2.6,0.9,3.3,0.1C27.3,78,27.3,76.8,26.1,75.8z M27.4,23.3
	l-1.1,0.5l-9.6-3.3l-0.8,0.9L21,31.6c0.2-0.4,0.5-0.8,0.8-1.2l-1.3-2.4l2.8-3.1l2.4,0.8c0.7-0.7,1.3-1.3,2-1.9L27.4,23.3z M20,26.9
	L18,23l0,0l4.1,1.5L20,26.9z M35.7,18.8l-4.8-8.9c-0.6,0.3-1.4,0.7-2,1l0.2,0.6l1.1-0.1l2.7,4.9l-8.3-2.7c-0.5,0.3-1.1,0.8-1.6,1.2
	l0.1,0.6l1.1-0.1l4.8,7.5l1.1-0.8l-3.9-6l9.1,3L35.7,18.8z M37.2,88.6l-0.3-6.3l-1.1-0.4L31,86.9l1,0.5l1-1.1l2.5,0.9l0,1.6
	c0.5,0.2,1.4,0.5,2,0.7l0.2-0.3L37.2,88.6z M35.4,84.5l0,1.8l-1.9-0.7l1.2-1.3c0.4-0.4,0.7-0.9,0.7-0.9h0
	C35.5,83.4,35.4,83.9,35.4,84.5z M45.6,10.1c-0.7-2.3-2.7-4.3-6.4-3.2c-1,0.3-3,0.8-4.8,1.5V9l1.1,0.1l2.6,8.6c1.7-0.6,4-1.2,4-1.2
	C45.4,15.6,46.3,12.6,45.6,10.1z M41.1,15.8l-1.5,0.5l-2.3-7.6l1.6-0.5c3-0.7,4.3,0.8,4.9,2.7C44.2,12.8,43.6,15,41.1,15.8z
	 M51.3,88.3c1.1-0.5,1.5-1.2,1.5-2c0-0.9-0.7-1.8-2.2-1.9c0,0-2.2,0-3.1,0l-0.1,0.5l0.6,0.3V91h1.5v-5.8h0.5c0.9,0,1.2,0.6,1.2,1.1
	c0,0.7-0.4,1.4-1.3,1.6l-0.1,0.4l1.6,2.6c0.6,0,1.2-0.1,1.9-0.1L51.3,88.3z M59.5,13.1l1.5,1L60.4,16c-0.9,0.2-1.7,0.1-2.4,0
	c-2.1-0.5-3.4-2.5-2.8-4.9c0.7-2.6,2.7-3.4,4.7-2.8c0.9,0.2,1.7,0.7,2.5,1.4l0.1,1.4l0.6,0.1l1-2.4c-1.2-0.7-2.4-1.3-3.6-1.6
	c-3.2-0.9-6.3,0-7.2,3.6c-0.9,3.4,1.4,5.5,4.3,6.2c1.5,0.4,3.3,0.5,4.5,0.3l1.1-4l-3.3-0.9L59.5,13.1z M63.7,81.3
	c-0.6,0.3-1.2,0.5-1.8,0.8l0.1,0.5l0.7,0L65,88c0.5-0.2,0.9-0.4,1.4-0.6L63.7,81.3z M72.6,12.5l-1.1-0.6l-8.9,6.8
	c0.4,0.2,0.9,0.4,1.3,0.6l2-1.6l3.5,2.1l-0.3,2.7c0.6,0.4,1.4,1.1,2.1,1.7l0.5-0.5l-0.6-0.8L72.6,12.5z M69.7,18.6l-2.8-1.7l3.4-2.7
	l0,0L69.7,18.6z M66.8,26.4L49.4,40.3c0.6-2.1,0.3-4.8-1.4-6.7l13.1-10.4c-0.9-0.4-1.9-0.8-2.9-1.1L46,31.8
	c-0.9-0.5-2.1-0.9-4.6-0.9h-4.1l13-10.4c-0.4,0-0.7,0-1.1,0c-15.9,0-28.9,12.9-28.9,28.8c0,6.5,2.2,12.6,5.8,17.4v-7.8l10.7-8.5
	V34.6h2.4c3.3,0,4.7,2,4.7,3.7c0,2.3-1.7,4.1-5.2,4.6l-0.4,1.5l4.7,8.9L26.2,66.7c1.8,2.4,3.9,4.4,6.3,6.2v-7.8l11.6-9.2h5.9
	c0.7,4,3.5,6.4,7.5,6.4c1,0,2-0.2,3.1-0.5v-4.9l-4.5-1.3l0.3-2.2h9.3v10.9c-3.1,1.1-6.2,1.9-9.3,1.9c-3.9,0-7.4-1.2-9.9-4.3
	l-14,11.2c4.7,3.3,10.4,5.3,16.6,5.3c15.9,0,28.8-12.9,28.8-28.8C78.1,40,73.6,31.7,66.8,26.4z M64.9,49.2h-2l-1.1-4.4
	c-1.6-0.7-3-1-4.3-1c-5.1,0-7.8,4.6-7.7,10.6l-4.1-7.9c2.6-4.3,7.1-6.4,12.1-6.4c2.6,0,5.4,0.6,8,1.8L64.9,49.2z M77.9,77
	c-1.6-1.4-3.5,0.9-4.5,0c-0.4-0.4-0.2-0.9,0.1-1.3c0.2-0.2,0.3-0.3,0.5-0.4l1,0.4l0.4-0.5l-1.1-1c-0.5,0.2-0.9,0.6-1.3,1
	c-0.8,0.9-1.1,2.2-0.1,3.1c1.6,1.4,3.5-0.9,4.5,0c0.4,0.3,0.2,0.7,0,1c-0.4,0.5-0.9,0.8-1.7,1l0.5,0.9c0.6-0.2,1.3-0.7,1.8-1.2
	C78.5,79,78.8,77.8,77.9,77z M82.5,21.2c0,0-1.8-2.1-3.3-3.5l-0.6,0.2l0.3,1.1l-6.8,5.8l1.4,1.4l6.8-5.9l0.8,0.8
	c0.8,0.9,0.5,2.1-0.1,2.6c-0.7,0.6-1.9,0.7-2.9-0.2l-0.6,0.3l-1.7,5.1l1.6,2.2l1.5-5.9c1.4,0.9,2.8,0.8,3.7,0.1
	C83.5,24.4,83.8,22.7,82.5,21.2z M89,31.6c-0.8-1.8-1.4-3-2.2-4.4l-0.6,0.1l0,1.1L78,32.1c0.3,0.5,0.6,1.1,1,1.7l8.2-3.8l0.5,1
	c0.5,1.1,0,2.1-0.8,2.4c-0.8,0.4-2,0.1-2.8-1l-0.6,0.1L80.4,37c0,0,0.7,1.8,0.9,2.6l3.1-5.3c1.1,1.3,2.5,1.6,3.5,1.1
	C89.1,34.9,89.8,33.4,89,31.6z M90,52.2c-2.8-0.5-4.2,4.1-5.8,3.8c-0.9-0.1-1.1-0.9-1-1.7c0.2-1.3,0.7-2,1.4-2.8l-1.2-0.7
	c-0.6,0.6-1.2,1.9-1.3,3c-0.3,1.9,0.1,3.9,2.2,4.2c2.6,0.4,4-4.2,5.7-3.9c1,0.2,1.2,1.1,1,2c-0.1,0.4-0.2,0.7-0.3,1l-1.8,0.5
	L89,58.1l2.5,0.7c0.4-0.6,0.7-1.5,0.8-2.4C92.5,54.4,91.9,52.5,90,52.2z M92.5,43.9c-0.3-2.8-2.4-5.2-5.7-4.8
	c-2.9,0.3-4.8,2.7-4.5,5.7c0.4,3.5,3.1,5.4,6,5.1C91.4,49.5,92.8,46.8,92.5,43.9z M87.8,47.7c-2.8,0.3-4.2-1-4.4-2.9
	c-0.2-2,1.1-3.6,3.7-3.9c2.7-0.3,4.1,1,4.3,2.9C91.5,45.8,90.3,47.5,87.8,47.7z M82.5,21.2c0,0-1.8-2.1-3.3-3.5l-0.6,0.2l0.3,1.1
	l-6.8,5.8l1.4,1.4l6.8-5.9l0.8,0.8c0.8,0.9,0.5,2.1-0.1,2.6c-0.7,0.6-1.9,0.7-2.9-0.2l-0.6,0.3l-1.7,5.1l1.6,2.2l1.5-5.9
	c1.4,0.9,2.8,0.8,3.7,0.1C83.5,24.4,83.8,22.7,82.5,21.2z M77.9,77c-1.6-1.4-3.5,0.9-4.5,0c-0.4-0.4-0.2-0.9,0.1-1.3
	c0.2-0.2,0.3-0.3,0.5-0.4l1,0.4l0.4-0.5l-1.1-1c-0.5,0.2-0.9,0.6-1.3,1c-0.8,0.9-1.1,2.2-0.1,3.1c1.6,1.4,3.5-0.9,4.5,0
	c0.4,0.3,0.2,0.7,0,1c-0.4,0.5-0.9,0.8-1.7,1l0.5,0.9c0.6-0.2,1.3-0.7,1.8-1.2C78.5,79,78.8,77.8,77.9,77z M66.8,26.4L49.4,40.3
	c0.6-2.1,0.3-4.8-1.4-6.7l13.1-10.4c-0.9-0.4-1.9-0.8-2.9-1.1L46,31.8c-0.9-0.5-2.1-0.9-4.6-0.9h-4.1l13-10.4c-0.4,0-0.7,0-1.1,0
	c-15.9,0-28.9,12.9-28.9,28.8c0,6.5,2.2,12.6,5.8,17.4v-7.8l10.7-8.5V34.6h2.4c3.3,0,4.7,2,4.7,3.7c0,2.3-1.7,4.1-5.2,4.6l-0.4,1.5
	l4.7,8.9L26.2,66.7c1.8,2.4,3.9,4.4,6.3,6.2v-7.8l11.6-9.2h5.9c0.7,4,3.5,6.4,7.5,6.4c1,0,2-0.2,3.1-0.5v-4.9l-4.5-1.3l0.3-2.2h9.3
	v10.9c-3.1,1.1-6.2,1.9-9.3,1.9c-3.9,0-7.4-1.2-9.9-4.3l-14,11.2c4.7,3.3,10.4,5.3,16.6,5.3c15.9,0,28.8-12.9,28.8-28.8
	C78.1,40,73.6,31.7,66.8,26.4z M64.9,49.2h-2l-1.1-4.4c-1.6-0.7-3-1-4.3-1c-5.1,0-7.8,4.6-7.7,10.6l-4.1-7.9
	c2.6-4.3,7.1-6.4,12.1-6.4c2.6,0,5.4,0.6,8,1.8L64.9,49.2z M72.6,12.5l-1.1-0.6l-8.9,6.8c0.4,0.2,0.9,0.4,1.3,0.6l2-1.6l3.5,2.1
	l-0.3,2.7c0.6,0.4,1.4,1.1,2.1,1.7l0.5-0.5l-0.6-0.8L72.6,12.5z M69.7,18.6l-2.8-1.7l3.4-2.7l0,0L69.7,18.6z M63.7,81.3
	c-0.6,0.3-1.2,0.5-1.8,0.8l0.1,0.5l0.7,0L65,88c0.5-0.2,0.9-0.4,1.4-0.6L63.7,81.3z M59.5,13.1l1.5,1L60.4,16
	c-0.9,0.2-1.7,0.1-2.4,0c-2.1-0.5-3.4-2.5-2.8-4.9c0.7-2.6,2.7-3.4,4.7-2.8c0.9,0.2,1.7,0.7,2.5,1.4l0.1,1.4l0.6,0.1l1-2.4
	c-1.2-0.7-2.4-1.3-3.6-1.6c-3.2-0.9-6.3,0-7.2,3.6c-0.9,3.4,1.4,5.5,4.3,6.2c1.5,0.4,3.3,0.5,4.5,0.3l1.1-4l-3.3-0.9L59.5,13.1z
	 M51.3,88.3c1.1-0.5,1.5-1.2,1.5-2c0-0.9-0.7-1.8-2.2-1.9c0,0-2.2,0-3.1,0l-0.1,0.5l0.6,0.3V91h1.5v-5.8h0.5c0.9,0,1.2,0.6,1.2,1.1
	c0,0.7-0.4,1.4-1.3,1.6l-0.1,0.4l1.6,2.6c0.6,0,1.2-0.1,1.9-0.1L51.3,88.3z M45.6,10.1c-0.7-2.3-2.7-4.3-6.4-3.2
	c-1,0.3-3,0.8-4.8,1.5V9l1.1,0.1l2.6,8.6c1.7-0.6,4-1.2,4-1.2C45.4,15.6,46.3,12.6,45.6,10.1z M41.1,15.8l-1.5,0.5l-2.3-7.6l1.6-0.5
	c3-0.7,4.3,0.8,4.9,2.7C44.2,12.8,43.6,15,41.1,15.8z M37.2,88.6l-0.3-6.3l-1.1-0.4L31,86.9l1,0.5l1-1.1l2.5,0.9l0,1.6
	c0.5,0.2,1.4,0.5,2,0.7l0.2-0.3L37.2,88.6z M35.4,84.5l0,1.8l-1.9-0.7l1.2-1.3c0.4-0.4,0.7-0.9,0.7-0.9h0
	C35.5,83.4,35.4,83.9,35.4,84.5z M35.7,18.8l-4.8-8.9c-0.6,0.3-1.4,0.7-2,1l0.2,0.6l1.1-0.1l2.7,4.9l-8.3-2.7
	c-0.5,0.3-1.1,0.8-1.6,1.2l0.1,0.6l1.1-0.1l4.8,7.5l1.1-0.8l-3.9-6l9.1,3L35.7,18.8z M27.4,23.3l-1.1,0.5l-9.6-3.3l-0.8,0.9L21,31.6
	c0.2-0.4,0.5-0.8,0.8-1.2l-1.3-2.4l2.8-3.1l2.4,0.8c0.7-0.7,1.3-1.3,2-1.9L27.4,23.3z M20,26.9L18,23l0,0l4.1,1.5L20,26.9z
	 M26.1,75.8c0,0-1.6-1.4-2.3-2.2l-0.4,0.3l0.3,0.6l-3.9,4.4c0.3,0.3,0.7,0.7,1.1,1l3.9-4.3l0.4,0.3c0.7,0.6,0.7,1.2,0.3,1.7
	c-0.5,0.5-1.4,0.8-2.1,0.2l-0.3,0.5c0.1,0.1,0.2,0.2,0.3,0.3c1.3,1.2,2.6,0.9,3.3,0.1C27.3,78,27.3,76.8,26.1,75.8z M18.4,30
	l-0.6,0.5c0.6,1,1,2.6,0.3,4.1l-0.3,0.6l-8.1-4c-0.3,0.7-0.8,1.8-1,2.5l0.5,0.4l0.8-0.7l7.2,3.5l0,1.1l0.6,0.1
	c0.7-1.9,1.5-3.9,2.5-5.5L18.4,30z M16.5,55.3l-8.9,1.1l-0.1-1.1c-0.1-1.2,0.6-2,1.4-2.1c0.9-0.1,2,0.5,2.3,1.8l0.6,0.1l4.2-3.4
	c0-0.7-0.1-1.7-0.1-2.7l-4.5,4.1c-0.7-1.6-1.9-2.2-3-2.1c-1.3,0.2-2.4,1.4-2.2,3.3c0.1,1.4,0.7,4.3,0.8,4.8l0.6,0.1l0.3-1l8.9-1.1
	C16.7,56.7,16.6,55.8,16.5,55.3z M12,38c-3.1-0.5-5.2,1.6-5.7,4.6c-0.5,2.8,0.9,5.7,4.2,6.2c2.9,0.5,5.4-1.3,5.9-4.2
	C17,41,15,38.5,12,38z M15.3,44.1c-0.3,2-2.1,3.2-4.6,2.7c-2.7-0.5-3.7-2.1-3.3-4c0.3-1.9,1.9-3.2,4.5-2.8
	C14.6,40.6,15.7,42.2,15.3,44.1z M89,31.6c-0.8-1.8-1.4-3-2.2-4.4l-0.6,0.1l0,1.1L78,32.1c0.3,0.5,0.6,1.1,1,1.7l8.2-3.8l0.5,1
	c0.5,1.1,0,2.1-0.8,2.4c-0.8,0.4-2,0.1-2.8-1l-0.6,0.1L80.4,37c0,0,0.7,1.8,0.9,2.6l3.1-5.3c1.1,1.3,2.5,1.6,3.5,1.1
	C89.1,34.9,89.8,33.4,89,31.6z M90,52.2c-2.8-0.5-4.2,4.1-5.8,3.8c-0.9-0.1-1.1-0.9-1-1.7c0.2-1.3,0.7-2,1.4-2.8l-1.2-0.7
	c-0.6,0.6-1.2,1.9-1.3,3c-0.3,1.9,0.1,3.9,2.2,4.2c2.6,0.4,4-4.2,5.7-3.9c1,0.2,1.2,1.1,1,2c-0.1,0.4-0.2,0.7-0.3,1l-1.8,0.5
	L89,58.1l2.5,0.7c0.4-0.6,0.7-1.5,0.8-2.4C92.5,54.4,91.9,52.5,90,52.2z M92.5,43.9c-0.3-2.8-2.4-5.2-5.7-4.8
	c-2.9,0.3-4.8,2.7-4.5,5.7c0.4,3.5,3.1,5.4,6,5.1C91.4,49.5,92.8,46.8,92.5,43.9z M87.8,47.7c-2.8,0.3-4.2-1-4.4-2.9
	c-0.2-2,1.1-3.6,3.7-3.9c2.7-0.3,4.1,1,4.3,2.9C91.5,45.8,90.3,47.5,87.8,47.7z M12,38c-3.1-0.5-5.2,1.6-5.7,4.6
	c-0.5,2.8,0.9,5.7,4.2,6.2c2.9,0.5,5.4-1.3,5.9-4.2C17,41,15,38.5,12,38z M15.3,44.1c-0.3,2-2.1,3.2-4.6,2.7c-2.7-0.5-3.7-2.1-3.3-4
	c0.3-1.9,1.9-3.2,4.5-2.8C14.6,40.6,15.7,42.2,15.3,44.1z M16.5,55.3l-8.9,1.1l-0.1-1.1c-0.1-1.2,0.6-2,1.4-2.1
	c0.9-0.1,2,0.5,2.3,1.8l0.6,0.1l4.2-3.4c0-0.7-0.1-1.7-0.1-2.7l-4.5,4.1c-0.7-1.6-1.9-2.2-3-2.1c-1.3,0.2-2.4,1.4-2.2,3.3
	c0.1,1.4,0.7,4.3,0.8,4.8l0.6,0.1l0.3-1l8.9-1.1C16.7,56.7,16.6,55.8,16.5,55.3z M18.4,30l-0.6,0.5c0.6,1,1,2.6,0.3,4.1l-0.3,0.6
	l-8.1-4c-0.3,0.7-0.8,1.8-1,2.5l0.5,0.4l0.8-0.7l7.2,3.5l0,1.1l0.6,0.1c0.7-1.9,1.5-3.9,2.5-5.5L18.4,30z M26.1,75.8
	c0,0-1.6-1.4-2.3-2.2l-0.4,0.3l0.3,0.6l-3.9,4.4c0.3,0.3,0.7,0.7,1.1,1l3.9-4.3l0.4,0.3c0.7,0.6,0.7,1.2,0.3,1.7
	c-0.5,0.5-1.4,0.8-2.1,0.2l-0.3,0.5c0.1,0.1,0.2,0.2,0.3,0.3c1.3,1.2,2.6,0.9,3.3,0.1C27.3,78,27.3,76.8,26.1,75.8z M27.4,23.3
	l-1.1,0.5l-9.6-3.3l-0.8,0.9L21,31.6c0.2-0.4,0.5-0.8,0.8-1.2l-1.3-2.4l2.8-3.1l2.4,0.8c0.7-0.7,1.3-1.3,2-1.9L27.4,23.3z M20,26.9
	L18,23l0,0l4.1,1.5L20,26.9z M35.7,18.8l-4.8-8.9c-0.6,0.3-1.4,0.7-2,1l0.2,0.6l1.1-0.1l2.7,4.9l-8.3-2.7c-0.5,0.3-1.1,0.8-1.6,1.2
	l0.1,0.6l1.1-0.1l4.8,7.5l1.1-0.8l-3.9-6l9.1,3L35.7,18.8z M37.2,88.6l-0.3-6.3l-1.1-0.4L31,86.9l1,0.5l1-1.1l2.5,0.9l0,1.6
	c0.5,0.2,1.4,0.5,2,0.7l0.2-0.3L37.2,88.6z M35.4,84.5l0,1.8l-1.9-0.7l1.2-1.3c0.4-0.4,0.7-0.9,0.7-0.9h0
	C35.5,83.4,35.4,83.9,35.4,84.5z M45.6,10.1c-0.7-2.3-2.7-4.3-6.4-3.2c-1,0.3-3,0.8-4.8,1.5V9l1.1,0.1l2.6,8.6c1.7-0.6,4-1.2,4-1.2
	C45.4,15.6,46.3,12.6,45.6,10.1z M41.1,15.8l-1.5,0.5l-2.3-7.6l1.6-0.5c3-0.7,4.3,0.8,4.9,2.7C44.2,12.8,43.6,15,41.1,15.8z
	 M51.3,88.3c1.1-0.5,1.5-1.2,1.5-2c0-0.9-0.7-1.8-2.2-1.9c0,0-2.2,0-3.1,0l-0.1,0.5l0.6,0.3V91h1.5v-5.8h0.5c0.9,0,1.2,0.6,1.2,1.1
	c0,0.7-0.4,1.4-1.3,1.6l-0.1,0.4l1.6,2.6c0.6,0,1.2-0.1,1.9-0.1L51.3,88.3z M59.5,13.1l1.5,1L60.4,16c-0.9,0.2-1.7,0.1-2.4,0
	c-2.1-0.5-3.4-2.5-2.8-4.9c0.7-2.6,2.7-3.4,4.7-2.8c0.9,0.2,1.7,0.7,2.5,1.4l0.1,1.4l0.6,0.1l1-2.4c-1.2-0.7-2.4-1.3-3.6-1.6
	c-3.2-0.9-6.3,0-7.2,3.6c-0.9,3.4,1.4,5.5,4.3,6.2c1.5,0.4,3.3,0.5,4.5,0.3l1.1-4l-3.3-0.9L59.5,13.1z M63.7,81.3
	c-0.6,0.3-1.2,0.5-1.8,0.8l0.1,0.5l0.7,0L65,88c0.5-0.2,0.9-0.4,1.4-0.6L63.7,81.3z M72.6,12.5l-1.1-0.6l-8.9,6.8
	c0.4,0.2,0.9,0.4,1.3,0.6l2-1.6l3.5,2.1l-0.3,2.7c0.6,0.4,1.4,1.1,2.1,1.7l0.5-0.5l-0.6-0.8L72.6,12.5z M69.7,18.6l-2.8-1.7l3.4-2.7
	l0,0L69.7,18.6z M66.8,26.4L49.4,40.3c0.6-2.1,0.3-4.8-1.4-6.7l13.1-10.4c-0.9-0.4-1.9-0.8-2.9-1.1L46,31.8
	c-0.9-0.5-2.1-0.9-4.6-0.9h-4.1l13-10.4c-0.4,0-0.7,0-1.1,0c-15.9,0-28.9,12.9-28.9,28.8c0,6.5,2.2,12.6,5.8,17.4v-7.8l10.7-8.5
	V34.6h2.4c3.3,0,4.7,2,4.7,3.7c0,2.3-1.7,4.1-5.2,4.6l-0.4,1.5l4.7,8.9L26.2,66.7c1.8,2.4,3.9,4.4,6.3,6.2v-7.8l11.6-9.2h5.9
	c0.7,4,3.5,6.4,7.5,6.4c1,0,2-0.2,3.1-0.5v-4.9l-4.5-1.3l0.3-2.2h9.3v10.9c-3.1,1.1-6.2,1.9-9.3,1.9c-3.9,0-7.4-1.2-9.9-4.3
	l-14,11.2c4.7,3.3,10.4,5.3,16.6,5.3c15.9,0,28.8-12.9,28.8-28.8C78.1,40,73.6,31.7,66.8,26.4z M64.9,49.2h-2l-1.1-4.4
	c-1.6-0.7-3-1-4.3-1c-5.1,0-7.8,4.6-7.7,10.6l-4.1-7.9c2.6-4.3,7.1-6.4,12.1-6.4c2.6,0,5.4,0.6,8,1.8L64.9,49.2z M77.9,77
	c-1.6-1.4-3.5,0.9-4.5,0c-0.4-0.4-0.2-0.9,0.1-1.3c0.2-0.2,0.3-0.3,0.5-0.4l1,0.4l0.4-0.5l-1.1-1c-0.5,0.2-0.9,0.6-1.3,1
	c-0.8,0.9-1.1,2.2-0.1,3.1c1.6,1.4,3.5-0.9,4.5,0c0.4,0.3,0.2,0.7,0,1c-0.4,0.5-0.9,0.8-1.7,1l0.5,0.9c0.6-0.2,1.3-0.7,1.8-1.2
	C78.5,79,78.8,77.8,77.9,77z M82.5,21.2c0,0-1.8-2.1-3.3-3.5l-0.6,0.2l0.3,1.1l-6.8,5.8l1.4,1.4l6.8-5.9l0.8,0.8
	c0.8,0.9,0.5,2.1-0.1,2.6c-0.7,0.6-1.9,0.7-2.9-0.2l-0.6,0.3l-1.7,5.1l1.6,2.2l1.5-5.9c1.4,0.9,2.8,0.8,3.7,0.1
	C83.5,24.4,83.8,22.7,82.5,21.2z M89,31.6c-0.8-1.8-1.4-3-2.2-4.4l-0.6,0.1l0,1.1L78,32.1c0.3,0.5,0.6,1.1,1,1.7l8.2-3.8l0.5,1
	c0.5,1.1,0,2.1-0.8,2.4c-0.8,0.4-2,0.1-2.8-1l-0.6,0.1L80.4,37c0,0,0.7,1.8,0.9,2.6l3.1-5.3c1.1,1.3,2.5,1.6,3.5,1.1
	C89.1,34.9,89.8,33.4,89,31.6z M90,52.2c-2.8-0.5-4.2,4.1-5.8,3.8c-0.9-0.1-1.1-0.9-1-1.7c0.2-1.3,0.7-2,1.4-2.8l-1.2-0.7
	c-0.6,0.6-1.2,1.9-1.3,3c-0.3,1.9,0.1,3.9,2.2,4.2c2.6,0.4,4-4.2,5.7-3.9c1,0.2,1.2,1.1,1,2c-0.1,0.4-0.2,0.7-0.3,1l-1.8,0.5
	L89,58.1l2.5,0.7c0.4-0.6,0.7-1.5,0.8-2.4C92.5,54.4,91.9,52.5,90,52.2z M92.5,43.9c-0.3-2.8-2.4-5.2-5.7-4.8
	c-2.9,0.3-4.8,2.7-4.5,5.7c0.4,3.5,3.1,5.4,6,5.1C91.4,49.5,92.8,46.8,92.5,43.9z M87.8,47.7c-2.8,0.3-4.2-1-4.4-2.9
	c-0.2-2,1.1-3.6,3.7-3.9c2.7-0.3,4.1,1,4.3,2.9C91.5,45.8,90.3,47.5,87.8,47.7z M82.5,21.2c0,0-1.8-2.1-3.3-3.5l-0.6,0.2l0.3,1.1
	l-6.8,5.8l1.4,1.4l6.8-5.9l0.8,0.8c0.8,0.9,0.5,2.1-0.1,2.6c-0.7,0.6-1.9,0.7-2.9-0.2l-0.6,0.3l-1.7,5.1l1.6,2.2l1.5-5.9
	c1.4,0.9,2.8,0.8,3.7,0.1C83.5,24.4,83.8,22.7,82.5,21.2z M77.9,77c-1.6-1.4-3.5,0.9-4.5,0c-0.4-0.4-0.2-0.9,0.1-1.3
	c0.2-0.2,0.3-0.3,0.5-0.4l1,0.4l0.4-0.5l-1.1-1c-0.5,0.2-0.9,0.6-1.3,1c-0.8,0.9-1.1,2.2-0.1,3.1c1.6,1.4,3.5-0.9,4.5,0
	c0.4,0.3,0.2,0.7,0,1c-0.4,0.5-0.9,0.8-1.7,1l0.5,0.9c0.6-0.2,1.3-0.7,1.8-1.2C78.5,79,78.8,77.8,77.9,77z M66.8,26.4L49.4,40.3
	c0.6-2.1,0.3-4.8-1.4-6.7l13.1-10.4c-0.9-0.4-1.9-0.8-2.9-1.1L46,31.8c-0.9-0.5-2.1-0.9-4.6-0.9h-4.1l13-10.4c-0.4,0-0.7,0-1.1,0
	c-15.9,0-28.9,12.9-28.9,28.8c0,6.5,2.2,12.6,5.8,17.4v-7.8l10.7-8.5V34.6h2.4c3.3,0,4.7,2,4.7,3.7c0,2.3-1.7,4.1-5.2,4.6l-0.4,1.5
	l4.7,8.9L26.2,66.7c1.8,2.4,3.9,4.4,6.3,6.2v-7.8l11.6-9.2h5.9c0.7,4,3.5,6.4,7.5,6.4c1,0,2-0.2,3.1-0.5v-4.9l-4.5-1.3l0.3-2.2h9.3
	v10.9c-3.1,1.1-6.2,1.9-9.3,1.9c-3.9,0-7.4-1.2-9.9-4.3l-14,11.2c4.7,3.3,10.4,5.3,16.6,5.3c15.9,0,28.8-12.9,28.8-28.8
	C78.1,40,73.6,31.7,66.8,26.4z M64.9,49.2h-2l-1.1-4.4c-1.6-0.7-3-1-4.3-1c-5.1,0-7.8,4.6-7.7,10.6l-4.1-7.9
	c2.6-4.3,7.1-6.4,12.1-6.4c2.6,0,5.4,0.6,8,1.8L64.9,49.2z M72.6,12.5l-1.1-0.6l-8.9,6.8c0.4,0.2,0.9,0.4,1.3,0.6l2-1.6l3.5,2.1
	l-0.3,2.7c0.6,0.4,1.4,1.1,2.1,1.7l0.5-0.5l-0.6-0.8L72.6,12.5z M69.7,18.6l-2.8-1.7l3.4-2.7l0,0L69.7,18.6z M63.7,81.3
	c-0.6,0.3-1.2,0.5-1.8,0.8l0.1,0.5l0.7,0L65,88c0.5-0.2,0.9-0.4,1.4-0.6L63.7,81.3z M59.5,13.1l1.5,1L60.4,16
	c-0.9,0.2-1.7,0.1-2.4,0c-2.1-0.5-3.4-2.5-2.8-4.9c0.7-2.6,2.7-3.4,4.7-2.8c0.9,0.2,1.7,0.7,2.5,1.4l0.1,1.4l0.6,0.1l1-2.4
	c-1.2-0.7-2.4-1.3-3.6-1.6c-3.2-0.9-6.3,0-7.2,3.6c-0.9,3.4,1.4,5.5,4.3,6.2c1.5,0.4,3.3,0.5,4.5,0.3l1.1-4l-3.3-0.9L59.5,13.1z
	 M51.3,88.3c1.1-0.5,1.5-1.2,1.5-2c0-0.9-0.7-1.8-2.2-1.9c0,0-2.2,0-3.1,0l-0.1,0.5l0.6,0.3V91h1.5v-5.8h0.5c0.9,0,1.2,0.6,1.2,1.1
	c0,0.7-0.4,1.4-1.3,1.6l-0.1,0.4l1.6,2.6c0.6,0,1.2-0.1,1.9-0.1L51.3,88.3z M45.6,10.1c-0.7-2.3-2.7-4.3-6.4-3.2
	c-1,0.3-3,0.8-4.8,1.5V9l1.1,0.1l2.6,8.6c1.7-0.6,4-1.2,4-1.2C45.4,15.6,46.3,12.6,45.6,10.1z M41.1,15.8l-1.5,0.5l-2.3-7.6l1.6-0.5
	c3-0.7,4.3,0.8,4.9,2.7C44.2,12.8,43.6,15,41.1,15.8z M37.2,88.6l-0.3-6.3l-1.1-0.4L31,86.9l1,0.5l1-1.1l2.5,0.9l0,1.6
	c0.5,0.2,1.4,0.5,2,0.7l0.2-0.3L37.2,88.6z M35.4,84.5l0,1.8l-1.9-0.7l1.2-1.3c0.4-0.4,0.7-0.9,0.7-0.9h0
	C35.5,83.4,35.4,83.9,35.4,84.5z M35.7,18.8l-4.8-8.9c-0.6,0.3-1.4,0.7-2,1l0.2,0.6l1.1-0.1l2.7,4.9l-8.3-2.7
	c-0.5,0.3-1.1,0.8-1.6,1.2l0.1,0.6l1.1-0.1l4.8,7.5l1.1-0.8l-3.9-6l9.1,3L35.7,18.8z M27.4,23.3l-1.1,0.5l-9.6-3.3l-0.8,0.9L21,31.6
	c0.2-0.4,0.5-0.8,0.8-1.2l-1.3-2.4l2.8-3.1l2.4,0.8c0.7-0.7,1.3-1.3,2-1.9L27.4,23.3z M20,26.9L18,23l0,0l4.1,1.5L20,26.9z
	 M26.1,75.8c0,0-1.6-1.4-2.3-2.2l-0.4,0.3l0.3,0.6l-3.9,4.4c0.3,0.3,0.7,0.7,1.1,1l3.9-4.3l0.4,0.3c0.7,0.6,0.7,1.2,0.3,1.7
	c-0.5,0.5-1.4,0.8-2.1,0.2l-0.3,0.5c0.1,0.1,0.2,0.2,0.3,0.3c1.3,1.2,2.6,0.9,3.3,0.1C27.3,78,27.3,76.8,26.1,75.8z M18.4,30
	l-0.6,0.5c0.6,1,1,2.6,0.3,4.1l-0.3,0.6l-8.1-4c-0.3,0.7-0.8,1.8-1,2.5l0.5,0.4l0.8-0.7l7.2,3.5l0,1.1l0.6,0.1
	c0.7-1.9,1.5-3.9,2.5-5.5L18.4,30z M16.5,55.3l-8.9,1.1l-0.1-1.1c-0.1-1.2,0.6-2,1.4-2.1c0.9-0.1,2,0.5,2.3,1.8l0.6,0.1l4.2-3.4
	c0-0.7-0.1-1.7-0.1-2.7l-4.5,4.1c-0.7-1.6-1.9-2.2-3-2.1c-1.3,0.2-2.4,1.4-2.2,3.3c0.1,1.4,0.7,4.3,0.8,4.8l0.6,0.1l0.3-1l8.9-1.1
	C16.7,56.7,16.6,55.8,16.5,55.3z M12,38c-3.1-0.5-5.2,1.6-5.7,4.6c-0.5,2.8,0.9,5.7,4.2,6.2c2.9,0.5,5.4-1.3,5.9-4.2
	C17,41,15,38.5,12,38z M15.3,44.1c-0.3,2-2.1,3.2-4.6,2.7c-2.7-0.5-3.7-2.1-3.3-4c0.3-1.9,1.9-3.2,4.5-2.8
	C14.6,40.6,15.7,42.2,15.3,44.1z M92.5,43.9c-0.3-2.8-2.4-5.2-5.7-4.8c-2.9,0.3-4.8,2.7-4.5,5.7c0.4,3.5,3.1,5.4,6,5.1
	C91.4,49.5,92.8,46.8,92.5,43.9z M87.8,47.7c-2.8,0.3-4.2-1-4.4-2.9c-0.2-2,1.1-3.6,3.7-3.9c2.7-0.3,4.1,1,4.3,2.9
	C91.5,45.8,90.3,47.5,87.8,47.7z M90,52.2c-2.8-0.5-4.2,4.1-5.8,3.8c-0.9-0.1-1.1-0.9-1-1.7c0.2-1.3,0.7-2,1.4-2.8l-1.2-0.7
	c-0.6,0.6-1.2,1.9-1.3,3c-0.3,1.9,0.1,3.9,2.2,4.2c2.6,0.4,4-4.2,5.7-3.9c1,0.2,1.2,1.1,1,2c-0.1,0.4-0.2,0.7-0.3,1l-1.8,0.5
	L89,58.1l2.5,0.7c0.4-0.6,0.7-1.5,0.8-2.4C92.5,54.4,91.9,52.5,90,52.2z M89,31.6c-0.8-1.8-1.4-3-2.2-4.4l-0.6,0.1l0,1.1L78,32.1
	c0.3,0.5,0.6,1.1,1,1.7l8.2-3.8l0.5,1c0.5,1.1,0,2.1-0.8,2.4c-0.8,0.4-2,0.1-2.8-1l-0.6,0.1L80.4,37c0,0,0.7,1.8,0.9,2.6l3.1-5.3
	c1.1,1.3,2.5,1.6,3.5,1.1C89.1,34.9,89.8,33.4,89,31.6z M82.5,21.2c0,0-1.8-2.1-3.3-3.5l-0.6,0.2l0.3,1.1l-6.8,5.8l1.4,1.4l6.8-5.9
	l0.8,0.8c0.8,0.9,0.5,2.1-0.1,2.6c-0.7,0.6-1.9,0.7-2.9-0.2l-0.6,0.3l-1.7,5.1l1.6,2.2l1.5-5.9c1.4,0.9,2.8,0.8,3.7,0.1
	C83.5,24.4,83.8,22.7,82.5,21.2z M77.9,77c-1.6-1.4-3.5,0.9-4.5,0c-0.4-0.4-0.2-0.9,0.1-1.3c0.2-0.2,0.3-0.3,0.5-0.4l1,0.4l0.4-0.5
	l-1.1-1c-0.5,0.2-0.9,0.6-1.3,1c-0.8,0.9-1.1,2.2-0.1,3.1c1.6,1.4,3.5-0.9,4.5,0c0.4,0.3,0.2,0.7,0,1c-0.4,0.5-0.9,0.8-1.7,1
	l0.5,0.9c0.6-0.2,1.3-0.7,1.8-1.2C78.5,79,78.8,77.8,77.9,77z M66.8,26.4L49.4,40.3c0.6-2.1,0.3-4.8-1.4-6.7l13.1-10.4
	c-0.9-0.4-1.9-0.8-2.9-1.1L46,31.8c-0.9-0.5-2.1-0.9-4.6-0.9h-4.1l13-10.4c-0.4,0-0.7,0-1.1,0c-15.9,0-28.9,12.9-28.9,28.8
	c0,6.5,2.2,12.6,5.8,17.4v-7.8l10.7-8.5V34.6h2.4c3.3,0,4.7,2,4.7,3.7c0,2.3-1.7,4.1-5.2,4.6l-0.4,1.5l4.7,8.9L26.2,66.7
	c1.8,2.4,3.9,4.4,6.3,6.2v-7.8l11.6-9.2h5.9c0.7,4,3.5,6.4,7.5,6.4c1,0,2-0.2,3.1-0.5v-4.9l-4.5-1.3l0.3-2.2h9.3v10.9
	c-3.1,1.1-6.2,1.9-9.3,1.9c-3.9,0-7.4-1.2-9.9-4.3l-14,11.2c4.7,3.3,10.4,5.3,16.6,5.3c15.9,0,28.8-12.9,28.8-28.8
	C78.1,40,73.6,31.7,66.8,26.4z M64.9,49.2h-2l-1.1-4.4c-1.6-0.7-3-1-4.3-1c-5.1,0-7.8,4.6-7.7,10.6l-4.1-7.9
	c2.6-4.3,7.1-6.4,12.1-6.4c2.6,0,5.4,0.6,8,1.8L64.9,49.2z M72.6,12.5l-1.1-0.6l-8.9,6.8c0.4,0.2,0.9,0.4,1.3,0.6l2-1.6l3.5,2.1
	l-0.3,2.7c0.6,0.4,1.4,1.1,2.1,1.7l0.5-0.5l-0.6-0.8L72.6,12.5z M69.7,18.6l-2.8-1.7l3.4-2.7l0,0L69.7,18.6z M63.7,81.3
	c-0.6,0.3-1.2,0.5-1.8,0.8l0.1,0.5l0.7,0L65,88c0.5-0.2,0.9-0.4,1.4-0.6L63.7,81.3z M59.5,13.1l1.5,1L60.4,16
	c-0.9,0.2-1.7,0.1-2.4,0c-2.1-0.5-3.4-2.5-2.8-4.9c0.7-2.6,2.7-3.4,4.7-2.8c0.9,0.2,1.7,0.7,2.5,1.4l0.1,1.4l0.6,0.1l1-2.4
	c-1.2-0.7-2.4-1.3-3.6-1.6c-3.2-0.9-6.3,0-7.2,3.6c-0.9,3.4,1.4,5.5,4.3,6.2c1.5,0.4,3.3,0.5,4.5,0.3l1.1-4l-3.3-0.9L59.5,13.1z
	 M51.3,88.3c1.1-0.5,1.5-1.2,1.5-2c0-0.9-0.7-1.8-2.2-1.9c0,0-2.2,0-3.1,0l-0.1,0.5l0.6,0.3V91h1.5v-5.8h0.5c0.9,0,1.2,0.6,1.2,1.1
	c0,0.7-0.4,1.4-1.3,1.6l-0.1,0.4l1.6,2.6c0.6,0,1.2-0.1,1.9-0.1L51.3,88.3z M45.6,10.1c-0.7-2.3-2.7-4.3-6.4-3.2
	c-1,0.3-3,0.8-4.8,1.5V9l1.1,0.1l2.6,8.6c1.7-0.6,4-1.2,4-1.2C45.4,15.6,46.3,12.6,45.6,10.1z M41.1,15.8l-1.5,0.5l-2.3-7.6l1.6-0.5
	c3-0.7,4.3,0.8,4.9,2.7C44.2,12.8,43.6,15,41.1,15.8z M37.2,88.6l-0.3-6.3l-1.1-0.4L31,86.9l1,0.5l1-1.1l2.5,0.9l0,1.6
	c0.5,0.2,1.4,0.5,2,0.7l0.2-0.3L37.2,88.6z M35.4,84.5l0,1.8l-1.9-0.7l1.2-1.3c0.4-0.4,0.7-0.9,0.7-0.9h0
	C35.5,83.4,35.4,83.9,35.4,84.5z M35.7,18.8l-4.8-8.9c-0.6,0.3-1.4,0.7-2,1l0.2,0.6l1.1-0.1l2.7,4.9l-8.3-2.7
	c-0.5,0.3-1.1,0.8-1.6,1.2l0.1,0.6l1.1-0.1l4.8,7.5l1.1-0.8l-3.9-6l9.1,3L35.7,18.8z M27.4,23.3l-1.1,0.5l-9.6-3.3l-0.8,0.9L21,31.6
	c0.2-0.4,0.5-0.8,0.8-1.2l-1.3-2.4l2.8-3.1l2.4,0.8c0.7-0.7,1.3-1.3,2-1.9L27.4,23.3z M20,26.9L18,23l0,0l4.1,1.5L20,26.9z
	 M26.1,75.8c0,0-1.6-1.4-2.3-2.2l-0.4,0.3l0.3,0.6l-3.9,4.4c0.3,0.3,0.7,0.7,1.1,1l3.9-4.3l0.4,0.3c0.7,0.6,0.7,1.2,0.3,1.7
	c-0.5,0.5-1.4,0.8-2.1,0.2l-0.3,0.5c0.1,0.1,0.2,0.2,0.3,0.3c1.3,1.2,2.6,0.9,3.3,0.1C27.3,78,27.3,76.8,26.1,75.8z M18.4,30
	l-0.6,0.5c0.6,1,1,2.6,0.3,4.1l-0.3,0.6l-8.1-4c-0.3,0.7-0.8,1.8-1,2.5l0.5,0.4l0.8-0.7l7.2,3.5l0,1.1l0.6,0.1
	c0.7-1.9,1.5-3.9,2.5-5.5L18.4,30z M16.5,55.3l-8.9,1.1l-0.1-1.1c-0.1-1.2,0.6-2,1.4-2.1c0.9-0.1,2,0.5,2.3,1.8l0.6,0.1l4.2-3.4
	c0-0.7-0.1-1.7-0.1-2.7l-4.5,4.1c-0.7-1.6-1.9-2.2-3-2.1c-1.3,0.2-2.4,1.4-2.2,3.3c0.1,1.4,0.7,4.3,0.8,4.8l0.6,0.1l0.3-1l8.9-1.1
	C16.7,56.7,16.6,55.8,16.5,55.3z M12,38c-3.1-0.5-5.2,1.6-5.7,4.6c-0.5,2.8,0.9,5.7,4.2,6.2c2.9,0.5,5.4-1.3,5.9-4.2
	C17,41,15,38.5,12,38z M15.3,44.1c-0.3,2-2.1,3.2-4.6,2.7c-2.7-0.5-3.7-2.1-3.3-4c0.3-1.9,1.9-3.2,4.5-2.8
	C14.6,40.6,15.7,42.2,15.3,44.1z M92.5,43.9c-0.3-2.8-2.4-5.2-5.7-4.8c-2.9,0.3-4.8,2.7-4.5,5.7c0.4,3.5,3.1,5.4,6,5.1
	C91.4,49.5,92.8,46.8,92.5,43.9z M87.8,47.7c-2.8,0.3-4.2-1-4.4-2.9c-0.2-2,1.1-3.6,3.7-3.9c2.7-0.3,4.1,1,4.3,2.9
	C91.5,45.8,90.3,47.5,87.8,47.7z M89,31.6c-0.8-1.8-1.4-3-2.2-4.4l-0.6,0.1l0,1.1L78,32.1c0.3,0.5,0.6,1.1,1,1.7l8.2-3.8l0.5,1
	c0.5,1.1,0,2.1-0.8,2.4c-0.8,0.4-2,0.1-2.8-1l-0.6,0.1L80.4,37c0,0,0.7,1.8,0.9,2.6l3.1-5.3c1.1,1.3,2.5,1.6,3.5,1.1
	C89.1,34.9,89.8,33.4,89,31.6z M82.5,21.2c0,0-1.8-2.1-3.3-3.5l-0.6,0.2l0.3,1.1l-6.8,5.8l1.4,1.4l6.8-5.9l0.8,0.8
	c0.8,0.9,0.5,2.1-0.1,2.6c-0.7,0.6-1.9,0.7-2.9-0.2l-0.6,0.3l-1.7,5.1l1.6,2.2l1.5-5.9c1.4,0.9,2.8,0.8,3.7,0.1
	C83.5,24.4,83.8,22.7,82.5,21.2z M72.6,12.5l-1.1-0.6l-8.9,6.8c0.4,0.2,0.9,0.4,1.3,0.6l2-1.6l3.5,2.1l-0.3,2.7
	c0.6,0.4,1.4,1.1,2.1,1.7l0.5-0.5l-0.6-0.8L72.6,12.5z M69.7,18.6l-2.8-1.7l3.4-2.7l0,0L69.7,18.6z M59.5,13.1l1.5,1L60.4,16
	c-0.9,0.2-1.7,0.1-2.4,0c-2.1-0.5-3.4-2.5-2.8-4.9c0.7-2.6,2.7-3.4,4.7-2.8c0.9,0.2,1.7,0.7,2.5,1.4l0.1,1.4l0.6,0.1l1-2.4
	c-1.2-0.7-2.4-1.3-3.6-1.6c-3.2-0.9-6.3,0-7.2,3.6c-0.9,3.4,1.4,5.5,4.3,6.2c1.5,0.4,3.3,0.5,4.5,0.3l1.1-4l-3.3-0.9L59.5,13.1z
	 M66.8,26.4L49.4,40.3c0.6-2.1,0.3-4.8-1.4-6.7l13.1-10.4c-0.9-0.4-1.9-0.8-2.9-1.1L46,31.8c-0.9-0.5-2.1-0.9-4.6-0.9h-4.1l13-10.4
	c-0.4,0-0.7,0-1.1,0c-15.9,0-28.9,12.9-28.9,28.8c0,6.5,2.2,12.6,5.8,17.4v-7.8l10.7-8.5V34.6h2.4c3.3,0,4.7,2,4.7,3.7
	c0,2.3-1.7,4.1-5.2,4.6l-0.4,1.5l4.7,8.9L26.2,66.7c1.8,2.4,3.9,4.4,6.3,6.2v-7.8l11.6-9.2h5.9c0.7,4,3.5,6.4,7.5,6.4
	c1,0,2-0.2,3.1-0.5v-4.9l-4.5-1.3l0.3-2.2h9.3v10.9c-3.1,1.1-6.2,1.9-9.3,1.9c-3.9,0-7.4-1.2-9.9-4.3l-14,11.2
	c4.7,3.3,10.4,5.3,16.6,5.3c15.9,0,28.8-12.9,28.8-28.8C78.1,40,73.6,31.7,66.8,26.4z M64.9,49.2h-2l-1.1-4.4c-1.6-0.7-3-1-4.3-1
	c-5.1,0-7.8,4.6-7.7,10.6l-4.1-7.9c2.6-4.3,7.1-6.4,12.1-6.4c2.6,0,5.4,0.6,8,1.8L64.9,49.2z M45.6,10.1c-0.7-2.3-2.7-4.3-6.4-3.2
	c-1,0.3-3,0.8-4.8,1.5V9l1.1,0.1l2.6,8.6c1.7-0.6,4-1.2,4-1.2C45.4,15.6,46.3,12.6,45.6,10.1z M41.1,15.8l-1.5,0.5l-2.3-7.6l1.6-0.5
	c3-0.7,4.3,0.8,4.9,2.7C44.2,12.8,43.6,15,41.1,15.8z M35.7,18.8l-4.8-8.9c-0.6,0.3-1.4,0.7-2,1l0.2,0.6l1.1-0.1l2.7,4.9l-8.3-2.7
	c-0.5,0.3-1.1,0.8-1.6,1.2l0.1,0.6l1.1-0.1l4.8,7.5l1.1-0.8l-3.9-6l9.1,3L35.7,18.8z M27.4,23.3l-1.1,0.5l-9.6-3.3l-0.8,0.9L21,31.6
	c0.2-0.4,0.5-0.8,0.8-1.2l-1.3-2.4l2.8-3.1l2.4,0.8c0.7-0.7,1.3-1.3,2-1.9L27.4,23.3z M20,26.9L18,23l0,0l4.1,1.5L20,26.9z M18.4,30
	l-0.6,0.5c0.6,1,1,2.6,0.3,4.1l-0.3,0.6l-8.1-4c-0.3,0.7-0.8,1.8-1,2.5l0.5,0.4l0.8-0.7l7.2,3.5l0,1.1l0.6,0.1
	c0.7-1.9,1.5-3.9,2.5-5.5L18.4,30z M12,38c-3.1-0.5-5.2,1.6-5.7,4.6c-0.5,2.8,0.9,5.7,4.2,6.2c2.9,0.5,5.4-1.3,5.9-4.2
	C17,41,15,38.5,12,38z M15.3,44.1c-0.3,2-2.1,3.2-4.6,2.7c-2.7-0.5-3.7-2.1-3.3-4c0.3-1.9,1.9-3.2,4.5-2.8
	C14.6,40.6,15.7,42.2,15.3,44.1z M16.5,55.3l-8.9,1.1l-0.1-1.1c-0.1-1.2,0.6-2,1.4-2.1c0.9-0.1,2,0.5,2.3,1.8l0.6,0.1l4.2-3.4
	c0-0.7-0.1-1.7-0.1-2.7l-4.5,4.1c-0.7-1.6-1.9-2.2-3-2.1c-1.3,0.2-2.4,1.4-2.2,3.3c0.1,1.4,0.7,4.3,0.8,4.8l0.6,0.1l0.3-1l8.9-1.1
	C16.7,56.7,16.6,55.8,16.5,55.3z M26.1,75.8c0,0-1.6-1.4-2.3-2.2l-0.4,0.3l0.3,0.6l-3.9,4.4c0.3,0.3,0.7,0.7,1.1,1l3.9-4.3l0.4,0.3
	c0.7,0.6,0.7,1.2,0.3,1.7c-0.5,0.5-1.4,0.8-2.1,0.2l-0.3,0.5c0.1,0.1,0.2,0.2,0.3,0.3c1.3,1.2,2.6,0.9,3.3,0.1
	C27.3,78,27.3,76.8,26.1,75.8z M37.2,88.6l-0.3-6.3l-1.1-0.4L31,86.9l1,0.5l1-1.1l2.5,0.9l0,1.6c0.5,0.2,1.4,0.5,2,0.7l0.2-0.3
	L37.2,88.6z M35.4,84.5l0,1.8l-1.9-0.7l1.2-1.3c0.4-0.4,0.7-0.9,0.7-0.9h0C35.5,83.4,35.4,83.9,35.4,84.5z M51.3,88.3
	c1.1-0.5,1.5-1.2,1.5-2c0-0.9-0.7-1.8-2.2-1.9c0,0-2.2,0-3.1,0l-0.1,0.5l0.6,0.3V91h1.5v-5.8h0.5c0.9,0,1.2,0.6,1.2,1.1
	c0,0.7-0.4,1.4-1.3,1.6l-0.1,0.4l1.6,2.6c0.6,0,1.2-0.1,1.9-0.1L51.3,88.3z M63.7,81.3c-0.6,0.3-1.2,0.5-1.8,0.8l0.1,0.5l0.7,0
	L65,88c0.5-0.2,0.9-0.4,1.4-0.6L63.7,81.3z M77.9,77c-1.6-1.4-3.5,0.9-4.5,0c-0.4-0.4-0.2-0.9,0.1-1.3c0.2-0.2,0.3-0.3,0.5-0.4
	l1,0.4l0.4-0.5l-1.1-1c-0.5,0.2-0.9,0.6-1.3,1c-0.8,0.9-1.1,2.2-0.1,3.1c1.6,1.4,3.5-0.9,4.5,0c0.4,0.3,0.2,0.7,0,1
	c-0.4,0.5-0.9,0.8-1.7,1l0.5,0.9c0.6-0.2,1.3-0.7,1.8-1.2C78.5,79,78.8,77.8,77.9,77z M90,52.2c-2.8-0.5-4.2,4.1-5.8,3.8
	c-0.9-0.1-1.1-0.9-1-1.7c0.2-1.3,0.7-2,1.4-2.8l-1.2-0.7c-0.6,0.6-1.2,1.9-1.3,3c-0.3,1.9,0.1,3.9,2.2,4.2c2.6,0.4,4-4.2,5.7-3.9
	c1,0.2,1.2,1.1,1,2c-0.1,0.4-0.2,0.7-0.3,1l-1.8,0.5L89,58.1l2.5,0.7c0.4-0.6,0.7-1.5,0.8-2.4C92.5,54.4,91.9,52.5,90,52.2z"/>
</svg>
