<?xml version="1.0" encoding="utf-8"?>
<!-- Generator: Adobe Illustrator 21.0.0, SVG Export Plug-In . SVG Version: 6.00 Build 0)  -->
<svg version="1.1" id="Calque_1" xmlns="http://www.w3.org/2000/svg" xmlns:xlink="http://www.w3.org/1999/xlink" x="0px" y="0px"
	 viewBox="0 0 76.4 114.8" style="enable-background:new 0 0 76.4 114.8;" xml:space="preserve">
<style type="text/css">
	.st0{opacity:0.4;}
	.st1{fill:#FFFFFF;}
</style>
<g id="layer1_8_" transform="translate(-333.80935,239.32779)" class="st0">
	<path id="path21639_8_" class="st1" d="M353.7-142.9h-3.9v-27.6h3.9c2.1,3.6,5.3,10.1,7,14.4v-14.4h3.9v27.6h-3.2
		c-2.1-6.5-4.8-13.3-7.6-19.2V-142.9"/>
	<path id="path21641_8_" class="st1" d="M369.7-142.9h4.6v-27.6h-4.6V-142.9z"/>
	<path id="path21645_8_" class="st1" d="M393-165.7c-1.2-0.8-3.1-1.6-5.2-1.6c-2.4,0-3.7,1.5-3.7,3.1c0,1.6,1,2.9,3.1,4.5l2.8,2.3
		c3.2,2.5,4.4,4.8,4.4,7.7c0,3.7-2.9,7.1-8.5,7.1c-2.6,0-5-0.9-5.9-1.6c-0.4-0.3-0.5-0.4-0.5-1v-3.4c1.5,1.3,3.7,2.4,6.3,2.4
		c2.5,0,4.3-1.4,4.3-3.4c0-1.8-1.2-2.9-3.2-4.6l-2.8-2.3c-2.6-2.2-4.4-4.3-4.4-7.8c0-3.6,3-6.7,7.7-6.7c2.1,0,4,0.5,5.1,1.2
		c0.3,0.2,0.5,0.4,0.5,0.8V-165.7"/>
	<path id="path21649_8_" class="st1" d="M406.7-127.7h-32.4v-6h-4.6v6h-32.4v-108.4h32.4v6h4.6v-6h32.4V-127.7z M410.2-239.3h-76.4
		v114.8h76.4V-239.3z"/>
	<path id="path21653_8_" class="st1" d="M360.2-216.9h-4.4v23.5h-4.6v-23.5h-4.4v-4.1h13.3V-216.9"/>
	<path id="path21657_8_" class="st1" d="M363.2-193.4V-221h12.4v4.1h-7.9v7.1h7.2v4.1h-7.2v8.1h7.9v4.2H363.2"/>
	<path id="path21661_8_" class="st1" d="M383.2-193.4h-3.9V-221h3.9c2.1,3.6,5.3,10.1,6.9,14.4V-221h3.9v27.5h-3.2
		c-2.1-6.5-4.8-13.3-7.6-19.2V-193.4"/>
	<path id="path21665_8_" class="st1" d="M343-187.7h3.7v0.9h-2.6v1.3h2.4v0.9h-2.4v1.5h-1V-187.7"/>
	<path id="path21669_8_" class="st1" d="M349-187.7h1.4v-0.3l1.2-0.3v0.7h1.2v0.9H350v0.9h2.5v0.9H350v1h2.7v0.9H349V-187.7"/>
	<path id="path21673_8_" class="st1" d="M356.1-186.8v2.8h1c0.9,0,1.4-0.5,1.4-1.4c0-0.9-0.5-1.4-1.4-1.4H356.1L356.1-186.8z
		 M355.1-187.7h2.1c1.6,0,2.5,0.9,2.5,2.3c0,1.4-0.9,2.3-2.5,2.3h-2.1V-187.7"/>
	<path id="path21677_8_" class="st1" d="M361.6-187.7h1.4v-0.3l1.2-0.3v0.7h1.2v0.9h-2.6v0.9h2.5v0.9h-2.5v1h2.7v0.9h-3.7V-187.7"/>
	<path id="path21681_8_" class="st1" d="M369.9-185.4c0.5,0,0.8-0.3,0.8-0.7c0-0.4-0.3-0.7-0.9-0.7h-1v1.4H369.9z M367.8-187.7h2.1
		c1.2,0,1.9,0.6,1.9,1.5c0,0.6-0.4,1.1-1,1.4l1.5,1.7H371l-1.2-1.4h-1v1.4h-1V-187.7"/>
	<path id="path21685_8_" class="st1" d="M376.4-186.8l-0.9,1.9h1.8L376.4-186.8z M373.6-183.1l2.3-4.6h1.2l2.2,4.6h-1.1l-0.5-1h-2.5
		l-0.5,1H373.6"/>
	<path id="path21689_8_" class="st1" d="M381.7-186.8h-1.5v-0.9h4v0.9h-1.5v3.7h-1V-186.8"/>
	<path id="path21691_8_" class="st1" d="M386.3-183.1h1v-4.6h-1V-183.1z"/>
	<path id="path21695_8_" class="st1" d="M392.1-186.9c-0.8,0-1.4,0.6-1.4,1.4c0,0.9,0.6,1.5,1.4,1.5c0.8,0,1.4-0.6,1.4-1.5
		C393.5-186.2,392.9-186.9,392.1-186.9z M392.1-187.8c1.5,0,2.5,1,2.5,2.4c0,1.4-1,2.4-2.5,2.4c-1.5,0-2.5-1-2.5-2.4
		C389.6-186.8,390.6-187.8,392.1-187.8"/>
	<path id="path21699_8_" class="st1" d="M396.6-187.7h0.8c0.1,0,0.2,0,0.2,0.1l2.3,2.8v-2.9h1v4.6h-0.7c-0.1,0-0.2,0-0.3-0.1
		l-2.4-2.9v3.1h-1L396.6-187.7"/>
	<path id="path21703_8_" class="st1" d="M343-180.8h3.7v0.9h-2.6v1.3h2.4v0.9h-2.4v1.5h-1V-180.8"/>
	<path id="path21707_8_" class="st1" d="M351.8-178.5c0.5,0,0.8-0.3,0.8-0.7c0-0.5-0.3-0.7-0.9-0.7h-1.1v1.4H351.8z M349.7-180.8
		h2.1c1.2,0,1.9,0.6,1.9,1.5c0,0.6-0.4,1.1-1,1.4l1.5,1.7h-1.3l-1.2-1.4h-1v1.4h-1V-180.8"/>
	<path id="path21711_8_" class="st1" d="M359-179.9l-0.9,1.9h1.8L359-179.9z M356.1-176.2l2.3-4.6h1.2l2.2,4.6h-1.1l-0.5-1h-2.5
		l-0.4,1H356.1"/>
	<path id="path21715_8_" class="st1" d="M364.3-180.8h0.8c0.1,0,0.2,0,0.2,0.1l2.3,2.8v-2.9h1v4.6h-0.7c-0.1,0-0.2,0-0.3-0.1
		l-2.4-2.9v3.1h-1L364.3-180.8"/>
	<path id="path21719_8_" class="st1" d="M376-176.9c-0.4,0.4-0.9,0.7-1.6,0.8v0.7h-1v-0.7c-1.1-0.2-2-1.1-2-2.3
		c0-1.4,1.1-2.4,2.6-2.4c0.6,0,1.3,0.2,1.8,0.5v1.1h-0.9v-0.5c-0.2-0.1-0.5-0.2-0.9-0.2c-0.9,0-1.5,0.6-1.5,1.5c0,1,0.7,1.5,1.6,1.5
		c0.7,0,1.1-0.3,1.4-0.6L376-176.9"/>
	<path id="path21723_8_" class="st1" d="M380.9-179.9L380-178h1.8L380.9-179.9z M378.1-176.2l2.3-4.6h1.2l2.2,4.6h-1.1l-0.5-1h-2.5
		l-0.5,1H378.1"/>
	<path id="path21725_8_" class="st1" d="M386.3-176.2h1v-4.6h-1V-176.2z"/>
	<path id="path21729_8_" class="st1" d="M391.5-179.6c0,0.3,0.2,0.4,0.7,0.6l1.2,0.3c0.6,0.2,1.1,0.6,1.1,1.2c0,0.8-0.8,1.4-2,1.4
		c-0.8,0-1.5-0.2-2.1-0.6l0.4-0.8c0.4,0.3,1,0.5,1.6,0.5c0.7,0,1-0.3,1-0.5c0-0.2-0.2-0.4-0.5-0.5l-1.2-0.4
		c-0.6-0.2-1.2-0.5-1.2-1.3c0-0.8,0.8-1.3,1.9-1.3c0.7,0,1.3,0.2,1.8,0.4v1h-0.9v-0.4c-0.2-0.1-0.5-0.2-0.9-0.2
		C391.8-180.1,391.5-179.9,391.5-179.6"/>
	<path id="path21733_8_" class="st1" d="M397.3-180.8h3.7v0.9h-2.6v0.9h2.5v0.9h-2.5v1h2.7v0.9h-3.7V-180.8"/>
</g>
</svg>
